<svg width="1138" height="322" viewBox="0 0 1138 322" fill="none" xmlns="http://www.w3.org/2000/svg">
<path opacity="0.1" d="M1068.92 183.524C1063.68 183.524 1058.45 184.123 1053.35 185.309C1046.95 156.766 1029.59 131.864 1005 115.948C980.412 100.032 950.548 94.3708 921.822 100.179C919.321 90.1258 914.579 80.7655 907.948 72.7959C901.317 64.8263 892.969 58.4531 883.526 54.1514C874.083 49.8496 863.789 47.7304 853.411 47.9516C843.032 48.1729 832.838 50.7289 823.588 55.4291C810.078 38.409 792.883 24.6608 773.291 15.2149C753.699 5.76901 732.219 0.870426 710.46 0.886269C645.34 0.886269 590.3 43.8921 572.277 102.989C563.313 100.561 553.949 99.9654 544.749 101.237C535.548 102.508 526.699 105.62 518.733 110.386C503.87 86.5989 480.585 69.2598 453.503 61.8119C426.42 54.364 397.522 57.3521 372.545 70.1829C357.421 50.1207 337.309 34.3478 314.199 24.4256C291.089 14.5034 265.782 10.7761 240.785 13.6125C215.788 16.449 191.966 25.7508 171.679 40.5973C151.391 55.4439 135.341 75.3201 125.118 98.2585C120.994 97.806 116.848 97.5795 112.699 97.5799C82.9373 97.5799 54.3946 109.377 33.3499 130.377C12.3052 151.377 0.482422 179.859 0.482422 209.557C0.482422 239.255 12.3052 267.736 33.3499 288.736C54.3946 309.736 82.9373 321.533 112.699 321.533C115.791 321.533 118.854 321.409 121.887 321.16H1068.92C1087.21 321.16 1104.76 313.909 1117.69 301.001C1130.63 288.093 1137.9 270.586 1137.9 252.332C1137.9 234.077 1130.63 216.571 1117.69 203.663C1104.76 190.755 1087.21 183.503 1068.92 183.503V183.524Z" fill="#49FAEE"/>
</svg>
