<svg width="603" height="246" viewBox="0 0 603 246" fill="none" xmlns="http://www.w3.org/2000/svg">
<path d="M602.42 186.467C602.421 178.727 600.894 171.063 597.926 163.912C594.958 156.761 590.608 150.264 585.124 144.79C579.639 139.317 573.128 134.976 565.963 132.013C558.797 129.051 551.116 127.527 543.36 127.527C539.467 127.526 535.583 127.906 531.764 128.66C530.009 115.761 525.384 103.417 518.227 92.5323C511.071 81.648 501.565 72.4994 490.405 65.7568C479.246 59.0142 466.716 54.8485 453.734 53.5649C440.752 52.2813 427.647 53.9124 415.378 58.3386C409.288 41.6794 398.254 27.2679 383.747 17.0246C369.241 6.78123 351.951 1.19247 334.18 1.00303C316.41 0.813587 299.004 6.03244 284.282 15.9642C269.559 25.896 258.219 40.0689 251.773 56.5945C240.033 51.0037 227.186 48.1096 214.177 48.125C198.999 48.1166 184.08 52.0552 170.891 59.5524C157.702 67.0496 146.699 77.8468 138.965 90.8798C134.979 89.9016 130.889 89.4071 126.784 89.4071C116.672 89.4052 106.787 92.4029 98.385 98.0193C89.9834 103.636 83.4445 111.618 79.599 120.951C74.3097 119.559 68.8622 118.857 63.3922 118.86C46.5795 118.86 30.4555 125.525 18.5671 137.388C6.67879 149.251 0 165.34 0 182.117C0 198.894 6.67879 214.983 18.5671 226.846C30.4555 238.709 46.5795 245.374 63.3922 245.374H543.36C559.019 245.374 574.037 239.168 585.112 228.122C596.187 217.076 602.412 202.093 602.42 186.467V186.467Z" fill="#8CFFF7"/>
</svg>
