<svg width="606" height="223" viewBox="0 0 606 223" fill="none" xmlns="http://www.w3.org/2000/svg">
<path d="M60.9987 222.199H550.603C558.571 222.204 566.446 220.485 573.684 217.16C580.921 213.834 587.35 208.982 592.526 202.937C597.702 196.892 601.502 189.798 603.665 182.146C605.827 174.493 606.3 166.463 605.051 158.61C603.802 150.758 600.86 143.269 596.429 136.66C591.998 130.052 586.183 124.481 579.386 120.333C572.588 116.185 564.97 113.557 557.056 112.631C549.142 111.706 541.121 112.505 533.546 114.972C529.84 104.897 523.955 95.7605 516.309 88.2115C508.664 80.6625 499.446 74.8866 489.311 71.2943C479.176 67.702 468.372 66.3815 457.668 67.4266C446.963 68.4717 436.621 71.8568 427.376 77.3414C420.144 68.5237 410.87 61.5962 400.353 57.1576C389.837 52.7191 378.396 50.9031 367.018 51.8667C355.641 52.8303 344.67 56.5444 335.054 62.688C325.437 68.8316 317.465 77.2198 311.827 87.1274C304.771 79.5004 296.208 73.4161 286.677 69.2589C277.146 65.1017 266.855 62.9618 256.453 62.9744C255.609 62.9744 254.773 62.9744 253.936 63.0151C245.902 44.3595 232.562 28.464 215.568 17.2957C198.573 6.12737 178.67 0.176408 158.321 0.1792C131.188 0.188144 105.131 10.7724 85.7062 29.6757C66.281 48.5789 55.0235 74.3059 54.3337 101.372C39.476 103.009 25.7454 110.057 15.7706 121.166C5.79577 132.276 0.277583 146.666 0.272464 161.582C0.269784 169.541 1.83855 177.423 4.88913 184.777C7.93971 192.132 12.4123 198.814 18.0516 204.443C23.6908 210.072 30.3861 214.537 37.755 217.584C45.124 220.631 53.0223 222.199 60.9987 222.199V222.199Z" fill="#16E7D6"/>
</svg>
