<svg width="133" height="63" viewBox="0 0 133 63" fill="none" xmlns="http://www.w3.org/2000/svg">
<path opacity="0.05" d="M17.2512 63H156.339C158.603 63.0017 160.84 62.5139 162.896 61.5702C164.952 60.6266 166.778 59.2497 168.248 57.5343C169.719 55.819 170.798 53.8061 171.413 51.6346C172.027 49.4631 172.161 47.1846 171.806 44.9563C171.452 42.728 170.616 40.603 169.357 38.7278C168.099 36.8526 166.447 35.2719 164.516 34.0947C162.585 32.9176 160.42 32.172 158.172 31.9093C155.924 31.6467 153.645 31.8734 151.493 32.5736C150.44 29.7147 148.769 27.1221 146.597 24.98C144.425 22.8379 141.806 21.1989 138.927 20.1796C136.048 19.1602 132.979 18.7855 129.938 19.0821C126.897 19.3786 123.959 20.3392 121.332 21.8955C119.278 19.3934 116.643 17.4276 113.656 16.1681C110.668 14.9087 107.418 14.3934 104.186 14.6668C100.954 14.9402 97.837 15.9941 95.1052 17.7374C92.3734 19.4807 90.1087 21.861 88.5069 24.6724C86.5026 22.5081 84.0699 20.7816 81.3623 19.602C78.6547 18.4223 75.7311 17.8151 72.7762 17.8187C72.5366 17.8187 72.299 17.8187 72.0613 17.8303C69.7789 12.5366 65.9893 8.02607 61.1614 4.85696C56.3336 1.68785 50.6795 -0.000792128 44.8987 2.78754e-07C37.1907 0.00253816 29.7885 3.00591 24.2702 8.36989C18.7518 13.7339 15.5538 21.0341 15.3578 28.7145C11.137 29.179 7.2364 31.1789 4.40274 34.3312C1.56907 37.4836 0.00145496 41.5669 9.73782e-07 45.7995C-0.000760348 48.058 0.444898 50.2946 1.31151 52.3814C2.17813 54.4682 3.44872 56.3644 5.05072 57.9617C6.65272 59.559 8.55473 60.8261 10.6481 61.6906C12.7415 62.5551 14.9853 63 17.2512 63Z" fill="#16E7D6"/>
</svg>
