<svg width="490" height="138" viewBox="0 0 490 138" fill="none" xmlns="http://www.w3.org/2000/svg">
<path opacity="0.05" d="M460.285 78.6035C458.027 78.6035 455.775 78.8613 453.576 79.3716C450.82 67.0876 443.342 56.3703 432.749 49.5204C422.155 42.6704 409.29 40.2338 396.915 42.7336C395.837 38.4069 393.794 34.3784 390.938 30.9484C388.081 27.5185 384.485 24.7756 380.417 22.9242C376.349 21.0728 371.914 20.1608 367.443 20.256C362.972 20.3512 358.58 21.4513 354.595 23.4741C348.775 16.149 341.367 10.2321 332.927 6.16677C324.487 2.10145 315.233 -0.00680185 305.86 1.64859e-05C277.806 1.64859e-05 254.094 18.5089 246.33 43.9428C242.468 42.8982 238.435 42.6417 234.471 43.1887C230.507 43.7358 226.695 45.0751 223.263 47.1264C216.86 36.889 206.829 29.4266 195.162 26.2211C183.495 23.0157 171.045 24.3018 160.285 29.8239C153.77 21.1895 145.105 14.4012 135.15 10.1309C125.194 5.86056 114.292 4.25638 103.523 5.47713C92.7539 6.69788 82.4916 10.7012 73.7517 17.0909C65.0118 23.4805 58.0974 32.0348 53.6931 41.907C51.9165 41.7123 50.1305 41.6148 48.3431 41.615C35.5217 41.615 23.2255 46.6924 14.1594 55.7302C5.09328 64.7681 0 77.026 0 89.8075C0 102.589 5.09328 114.847 14.1594 123.885C23.2255 132.923 35.5217 138 48.3431 138C49.6752 138 50.9947 137.946 52.3014 137.839H460.285C468.166 137.839 475.724 134.718 481.297 129.163C486.869 123.608 490 116.073 490 108.217C490 100.361 486.869 92.8261 481.297 87.2709C475.724 81.7156 468.166 78.5947 460.285 78.5947V78.6035Z" fill="#49FAEE"/>
</svg>
