<svg width="99" height="46" viewBox="0 0 99 46" fill="none" xmlns="http://www.w3.org/2000/svg">
<rect x="1" y="1" width="97" height="44" rx="22" fill="#17E7D6" fill-opacity="0.100845"/>
<mask id="mask0_346_3228" style="mask-type:luminance" maskUnits="userSpaceOnUse" x="11" y="8" width="30" height="30">
<path fill-rule="evenodd" clip-rule="evenodd" d="M11 8H41V37.9998H11V8Z" fill="white"/>
</mask>
<g mask="url(#mask0_346_3228)">
<path fill-rule="evenodd" clip-rule="evenodd" d="M41 23C41 31.284 34.284 38 26 38C17.716 38 11 31.284 11 23C11 14.716 17.716 8 26 8C34.284 8 41 14.716 41 23Z" fill="#627EEA"/>
</g>
<path fill-rule="evenodd" clip-rule="evenodd" d="M31.2567 23.1472C31.2517 23.1342 31.2427 23.1232 31.2357 23.1102C29.6327 20.4512 28.0297 17.7912 26.4267 15.1302C26.2897 14.9042 26.1527 14.6772 26.0157 14.4512C26.0117 14.4552 26.0067 14.4592 26.0027 14.4622C26.0027 14.4852 26.0037 14.5082 26.0037 14.5312C26.0037 14.5082 26.0027 14.4852 26.0027 14.4622C25.9977 14.4612 25.9927 14.4612 25.9887 14.4602C25.9787 14.4732 25.9657 14.4862 25.9567 14.5002C25.6897 14.9432 25.4227 15.3852 25.1547 15.8292C24.7777 16.4572 24.3997 17.0842 24.0217 17.7112C23.4417 18.6742 22.8607 19.6362 22.2807 20.5982C21.8157 21.3722 21.3497 22.1452 20.8837 22.9182C20.8387 22.9942 20.7947 23.0702 20.7507 23.1452C20.7407 23.1532 20.7377 23.1612 20.7517 23.1682C20.7757 23.1802 20.7977 23.1932 20.8207 23.2072C22.5307 24.2172 24.2407 25.2282 25.9517 26.2392C25.9647 26.2482 25.9787 26.2572 25.9927 26.2622C25.9997 26.2642 26.0097 26.2562 26.0187 26.2532C26.0707 26.2242 26.1237 26.1972 26.1757 26.1672C26.3447 26.0682 26.5117 25.9682 26.6797 25.8692C26.8397 25.7742 27.0007 25.6792 27.1607 25.5842C27.2977 25.5022 27.4337 25.4192 27.5697 25.3382C27.7647 25.2222 27.9607 25.1072 28.1557 24.9932C28.3587 24.8742 28.5617 24.7552 28.7637 24.6362C28.9427 24.5322 29.1207 24.4252 29.2987 24.3202C29.4527 24.2292 29.6067 24.1392 29.7597 24.0482C29.8967 23.9662 30.0317 23.8832 30.1687 23.8022C30.3537 23.6932 30.5387 23.5862 30.7237 23.4782C30.8997 23.3752 31.0737 23.2702 31.2487 23.1662C31.2407 23.1592 31.2337 23.1512 31.2267 23.1442C31.2337 23.1512 31.2407 23.1592 31.2487 23.1662C31.2517 23.1602 31.2587 23.1512 31.2567 23.1472Z" fill="white"/>
<path fill-rule="evenodd" clip-rule="evenodd" d="M26.5897 26.918C26.3947 27.033 26.2007 27.149 26.0057 27.265H25.9957C25.9977 27.268 26.0007 27.272 26.0037 27.275C26.0037 27.291 26.0047 27.307 26.0047 27.322C26.0047 27.307 26.0037 27.291 26.0037 27.275C26.0007 27.272 25.9977 27.268 25.9957 27.265C25.9857 27.258 25.9767 27.25 25.9657 27.243C25.4757 26.954 24.9847 26.664 24.4937 26.374C23.9577 26.058 23.4217 25.741 22.8867 25.424C22.3187 25.089 21.7507 24.753 21.1837 24.418C21.0597 24.345 20.9367 24.272 20.8127 24.199C20.7957 24.189 20.7777 24.185 20.7607 24.178C20.7687 24.199 20.7797 24.213 20.7897 24.227C20.9707 24.481 21.1517 24.736 21.3317 24.99C21.6927 25.498 22.0517 26.006 22.4117 26.514L23.9647 28.702C24.4207 29.344 24.8767 29.986 25.3317 30.628C25.5397 30.921 25.7477 31.215 25.9567 31.508C25.9657 31.52 25.9777 31.528 25.9877 31.539C25.9927 31.538 25.9977 31.538 26.0027 31.537C26.0077 31.541 26.0117 31.545 26.0167 31.549C26.0277 31.533 26.0397 31.519 26.0507 31.503C27.2987 29.745 28.5467 27.987 29.7947 26.23C30.2707 25.561 30.7447 24.892 31.2207 24.222C31.2307 24.207 31.2447 24.194 31.2477 24.168C31.2267 24.181 31.2107 24.189 31.1937 24.199C29.6587 25.106 28.1237 26.012 26.5897 26.918Z" fill="white"/>
<path d="M60.6071 27.256V29H52.2071V17.8H60.3831V19.544H54.2871V22.456H59.6951V24.168H54.2871V27.256H60.6071ZM65.1979 19.56H61.4859V17.8H70.9899V19.56H67.2779V29H65.1979V19.56ZM82.5029 17.8V29H80.4229V24.2H74.6309V29H72.5509V17.8H74.6309V22.424H80.4229V17.8H82.5029Z" fill="#17E7D6"/>
<rect x="1" y="1" width="97" height="44" rx="22" stroke="#17E7D6"/>
</svg>
