<svg width="142" height="46" viewBox="0 0 142 46" fill="none" xmlns="http://www.w3.org/2000/svg">
<rect x="1" y="1" width="140" height="44" rx="22" fill="#17E7D6" fill-opacity="0.100845"/>
<mask id="mask0_766_4136" style="mask-type:luminance" maskUnits="userSpaceOnUse" x="11" y="8" width="20" height="20">
<path fill-rule="evenodd" clip-rule="evenodd" d="M11 8H31V27.9999H11V8Z" fill="white"/>
</mask>
<g mask="url(#mask0_766_4136)">
<path fill-rule="evenodd" clip-rule="evenodd" d="M31 18C31 23.5227 26.5227 28 21 28C15.4773 28 11 23.5227 11 18C11 12.4773 15.4773 8 21 8C26.5227 8 31 12.4773 31 18" fill="#627EEA"/>
</g>
<path fill-rule="evenodd" clip-rule="evenodd" d="M24.5048 18.0981C24.5015 18.0894 24.4955 18.0821 24.4908 18.0734C23.4221 16.3008 22.3535 14.5274 21.2848 12.7534C21.1935 12.6028 21.1021 12.4514 21.0108 12.3008C21.0081 12.3034 21.0048 12.3061 21.0021 12.3081C21.0021 12.3234 21.0028 12.3388 21.0028 12.3541C21.0028 12.3388 21.0021 12.3234 21.0021 12.3081C20.9988 12.3074 20.9955 12.3074 20.9928 12.3068C20.9861 12.3154 20.9775 12.3241 20.9715 12.3334C20.7935 12.6288 20.6155 12.9234 20.4368 13.2194C20.1855 13.6381 19.9335 14.0561 19.6815 14.4741C19.2948 15.1161 18.9075 15.7574 18.5208 16.3988C18.2108 16.9148 17.9001 17.4301 17.5895 17.9454C17.5595 17.9961 17.5301 18.0468 17.5008 18.0968C17.4941 18.1021 17.4921 18.1074 17.5015 18.1121C17.5175 18.1201 17.5321 18.1288 17.5475 18.1381C18.6875 18.8114 19.8275 19.4854 20.9681 20.1594C20.9768 20.1654 20.9861 20.1714 20.9955 20.1748C21.0001 20.1761 21.0068 20.1708 21.0128 20.1688C21.0475 20.1494 21.0828 20.1314 21.1175 20.1114C21.2301 20.0454 21.3415 19.9788 21.4535 19.9128C21.5601 19.8494 21.6675 19.7861 21.7741 19.7228C21.8655 19.6681 21.9561 19.6128 22.0468 19.5588C22.1768 19.4814 22.3075 19.4048 22.4375 19.3288C22.5728 19.2494 22.7081 19.1701 22.8428 19.0908C22.9621 19.0214 23.0808 18.9501 23.1995 18.8801C23.3021 18.8194 23.4048 18.7594 23.5068 18.6988C23.5981 18.6441 23.6881 18.5888 23.7795 18.5348C23.9028 18.4621 24.0261 18.3908 24.1495 18.3188C24.2668 18.2501 24.3828 18.1801 24.4995 18.1108C24.4941 18.1061 24.4895 18.1008 24.4848 18.0961C24.4895 18.1008 24.4941 18.1061 24.4995 18.1108C24.5015 18.1068 24.5061 18.1008 24.5048 18.0981" fill="white"/>
<path fill-rule="evenodd" clip-rule="evenodd" d="M21.3928 20.6117C21.2628 20.6883 21.1335 20.7657 21.0035 20.843H20.9968C20.9982 20.845 21.0002 20.8477 21.0022 20.8497C21.0022 20.8603 21.0028 20.871 21.0028 20.881C21.0028 20.871 21.0022 20.8603 21.0022 20.8497C21.0002 20.8477 20.9982 20.845 20.9968 20.843C20.9902 20.8383 20.9842 20.833 20.9768 20.8283C20.6502 20.6357 20.3228 20.4423 19.9955 20.249C19.6382 20.0383 19.2808 19.827 18.9242 19.6157C18.5455 19.3923 18.1668 19.1683 17.7888 18.945C17.7062 18.8963 17.6242 18.8477 17.5415 18.799C17.5302 18.7923 17.5182 18.7897 17.5068 18.785C17.5122 18.799 17.5195 18.8083 17.5262 18.8177C17.6468 18.987 17.7675 19.157 17.8875 19.3263C18.1282 19.665 18.3675 20.0037 18.6075 20.3423L19.6428 21.801C19.9468 22.229 20.2508 22.657 20.5542 23.085C20.6928 23.2803 20.8315 23.4763 20.9708 23.6717C20.9768 23.6797 20.9848 23.685 20.9915 23.6923C20.9948 23.6917 20.9982 23.6917 21.0015 23.691C21.0048 23.6937 21.0075 23.6963 21.0108 23.699C21.0182 23.6883 21.0262 23.679 21.0335 23.6683C21.8655 22.4963 22.6975 21.3243 23.5295 20.153C23.8468 19.707 24.1628 19.261 24.4802 18.8143C24.4868 18.8043 24.4962 18.7957 24.4982 18.7783C24.4842 18.787 24.4735 18.7923 24.4622 18.799C23.4388 19.4037 22.4155 20.0077 21.3928 20.6117" fill="white"/>
<mask id="mask1_766_4136" style="mask-type:luminance" maskUnits="userSpaceOnUse" x="21" y="18" width="20" height="20">
<path fill-rule="evenodd" clip-rule="evenodd" d="M21 18H41V38H21V18Z" fill="white"/>
</mask>
<g mask="url(#mask1_766_4136)">
<path fill-rule="evenodd" clip-rule="evenodd" d="M41 28.0001C41 33.5228 36.5227 38.0001 31 38.0001C25.4773 38.0001 21 33.5228 21 28.0001C21 22.4774 25.4773 18 31 18C36.5227 18 41 22.4774 41 28.0001" fill="#17E7D6"/>
</g>
<path fill-rule="evenodd" clip-rule="evenodd" d="M31.3808 33.7239C31.1707 33.9351 30.8302 33.9351 30.6201 33.7239L28.3802 31.4715C28.2427 31.3333 28.1902 31.1313 28.2426 30.9431L29.5788 26.1483V30.4532C29.5788 30.5197 29.6749 30.5276 29.6857 30.462L31.0005 22.4443L32.3147 30.4618C32.3254 30.5273 32.4216 30.5194 32.4216 30.453V26.1483L33.7582 30.9431C33.8107 31.1313 33.7581 31.3333 33.6207 31.4715L31.3808 33.7239Z" fill="#112455"/>
<path d="M60.4509 27.256V29H52.0509V17.8H60.2269V19.544H54.1309V22.456H59.5389V24.168H54.1309V27.256H60.4509ZM65.0416 19.56H61.3296V17.8H70.8336V19.56H67.1216V29H65.0416V19.56ZM82.3466 17.8V29H80.2666V24.2H74.4746V29H72.3946V17.8H74.4746V22.424H80.2666V17.8H82.3466ZM89.1456 23.72H93.5456V25.384H89.1456V23.72ZM100.348 17.8H102.428V27.24H108.284V29H100.348V17.8ZM109.926 17.8H112.006V29H109.926V17.8ZM126.859 30.12C126.486 30.5573 126.049 30.888 125.547 31.112C125.057 31.336 124.518 31.448 123.931 31.448C123.163 31.448 122.459 31.272 121.819 30.92C121.179 30.5787 120.449 29.9813 119.627 29.128C118.593 29.0427 117.665 28.744 116.843 28.232C116.022 27.7093 115.382 27.032 114.923 26.2C114.465 25.3573 114.235 24.424 114.235 23.4C114.235 22.312 114.497 21.3307 115.019 20.456C115.542 19.5707 116.262 18.8827 117.179 18.392C118.097 17.8907 119.126 17.64 120.267 17.64C121.409 17.64 122.438 17.8907 123.355 18.392C124.273 18.8827 124.993 19.5653 125.515 20.44C126.038 21.3147 126.299 22.3013 126.299 23.4C126.299 24.2853 126.123 25.1067 125.771 25.864C125.419 26.6107 124.929 27.2507 124.299 27.784C123.67 28.3067 122.939 28.6853 122.107 28.92C122.417 29.2507 122.721 29.4907 123.019 29.64C123.318 29.7893 123.638 29.864 123.979 29.864C124.715 29.864 125.355 29.5653 125.899 28.968L126.859 30.12ZM116.331 23.4C116.331 24.1467 116.502 24.824 116.843 25.432C117.185 26.0293 117.654 26.4987 118.251 26.84C118.849 27.1707 119.521 27.336 120.267 27.336C121.014 27.336 121.686 27.1707 122.283 26.84C122.881 26.4987 123.35 26.0293 123.691 25.432C124.033 24.824 124.203 24.1467 124.203 23.4C124.203 22.6533 124.033 21.9813 123.691 21.384C123.35 20.776 122.881 20.3067 122.283 19.976C121.686 19.6347 121.014 19.464 120.267 19.464C119.521 19.464 118.849 19.6347 118.251 19.976C117.654 20.3067 117.185 20.776 116.843 21.384C116.502 21.9813 116.331 22.6533 116.331 23.4Z" fill="#17E7D6"/>
<rect x="1" y="1" width="140" height="44" rx="22" stroke="#17E7D6"/>
</svg>
