<svg width="65" height="65" viewBox="0 0 65 65" fill="none" xmlns="http://www.w3.org/2000/svg">
<mask id="mask0_348_4093" style="mask-type:luminance" maskUnits="userSpaceOnUse" x="0" y="0" width="65" height="65">
<path fill-rule="evenodd" clip-rule="evenodd" d="M0 8.49756L56.1473 4.63362e-05L64.6448 56.147L8.49746 64.6445L0 8.49756Z" fill="white"/>
</mask>
<g mask="url(#mask0_348_4093)">
<path fill-rule="evenodd" clip-rule="evenodd" d="M60.3961 28.0737C62.7425 43.5779 52.0753 58.0497 36.5712 60.3961C21.067 62.7426 6.5952 52.0754 4.24876 36.5712C1.90231 21.0671 12.5695 6.59525 28.0737 4.2488C43.5778 1.90236 58.0496 12.5696 60.3961 28.0737" fill="#627EEA"/>
</g>
<path fill-rule="evenodd" clip-rule="evenodd" d="M42.2024 31.109C42.1894 31.0861 42.1694 31.0681 42.1526 31.0457C38.3993 26.5232 34.6458 21.9989 30.8919 17.4727C30.5715 17.0885 30.2508 16.7025 29.9303 16.3183C29.924 16.3269 29.9158 16.3358 29.9091 16.3426C29.9156 16.3856 29.924 16.4284 29.9305 16.4714C29.924 16.4284 29.9156 16.3856 29.9091 16.3426C29.8995 16.3421 29.8901 16.3435 29.8824 16.3428C29.8673 16.3699 29.8467 16.398 29.8338 16.4267C29.4596 17.3314 29.085 18.2343 28.7092 19.1412C28.1815 20.4233 27.6517 21.7039 27.1218 22.9844C26.3091 24.951 25.4942 26.9161 24.6811 28.8808C24.0301 30.4611 23.3769 32.0398 22.7237 33.6186C22.661 33.7736 22.6002 33.9283 22.5391 34.0811C22.5226 34.0989 22.5193 34.1147 22.5474 34.1239C22.5958 34.1395 22.6406 34.1576 22.6876 34.1773C26.1741 35.5832 29.6609 36.991 33.1495 38.3986C33.1764 38.4117 33.2051 38.4246 33.2328 38.43C33.2464 38.4318 33.2629 38.414 33.2789 38.4058C33.368 38.3368 33.4595 38.2712 33.5484 38.2004C33.8366 37.9672 34.1208 37.7327 34.4072 37.4999C34.6798 37.2768 34.9542 37.0534 35.2267 36.8302C35.4599 36.638 35.6909 36.4441 35.9225 36.254C36.2546 35.9816 36.5889 35.7109 36.9215 35.4423C37.2678 35.1621 37.614 34.8819 37.9583 34.6019C38.2639 34.3566 38.5667 34.1059 38.8701 33.859C39.1326 33.645 39.3953 33.433 39.6559 33.2193C39.8891 33.027 40.1182 32.8335 40.3517 32.6431C40.667 32.3867 40.983 32.134 41.2986 31.8795C41.5988 31.6368 41.8948 31.391 42.1928 31.1468C42.1759 31.136 42.1605 31.123 42.1454 31.1119C42.1605 31.123 42.1759 31.136 42.1928 31.1468C42.1967 31.1348 42.2073 31.1159 42.2024 31.109" fill="white"/>
<path fill-rule="evenodd" clip-rule="evenodd" d="M34.536 39.488C34.2036 39.7584 33.8734 40.0305 33.5413 40.3028L33.5226 40.3056C33.5272 40.3107 33.5339 40.3173 33.5404 40.3221C33.5449 40.352 33.5513 40.3817 33.5556 40.4098C33.5513 40.3817 33.5449 40.352 33.5404 40.3221C33.5339 40.3173 33.5272 40.3107 33.5226 40.3056C33.5019 40.2954 33.4828 40.283 33.4602 40.273C32.4613 39.8709 31.4602 39.4672 30.4591 39.0635C29.3664 38.6239 28.2735 38.1824 27.1824 37.7407C26.0244 37.2746 24.8662 36.8066 23.7101 36.3403C23.4574 36.2388 23.2065 36.137 22.9538 36.0355C22.9191 36.0216 22.8843 36.0192 22.8505 36.0109C22.8714 36.0479 22.896 36.071 22.9186 36.0944C23.3293 36.5185 23.7403 36.9445 24.1492 37.3689C24.9687 38.2174 25.7845 39.0665 26.6021 39.9153L30.1284 43.5704C31.1637 44.6428 32.199 45.7152 33.2324 46.7878C33.7047 47.2773 34.1773 47.7686 34.6514 48.2578C34.6717 48.2777 34.6964 48.2893 34.7182 48.307C34.7273 48.3037 34.7367 48.3023 34.7457 48.299C34.7562 48.3051 34.7648 48.3115 34.7753 48.3175C34.7914 48.2845 34.8099 48.2549 34.8259 48.2218C36.6637 44.5781 38.5015 40.9344 40.3395 37.2925C41.0409 35.9056 41.7386 34.5192 42.4397 33.1305C42.4541 33.0995 42.4766 33.0713 42.4749 33.0217C42.4393 33.052 42.4116 33.0715 42.3826 33.0951C39.7666 35.2274 37.1504 37.3578 34.536 39.488" fill="white"/>
</svg>
