<svg width="16" height="16" viewBox="0 0 16 16" fill="none" xmlns="http://www.w3.org/2000/svg">
<path d="M6.11321 10.4988C6.11319 10.3331 6.04737 10.1743 5.93023 10.0571C5.81307 9.93992 5.65416 9.87409 5.48847 9.87409H5.47447V9.87405L5.47134 9.87413C5.30909 9.87819 5.15498 9.94596 5.04231 10.0627L2.11251 12.993V10.4947C2.11251 10.329 2.04669 10.1701 1.92954 10.0529C1.81345 9.93679 1.65637 9.87109 1.49231 9.86991L1.49162 9.8671C1.32745 9.8694 1.17079 9.93625 1.05551 10.0532C0.940237 10.1701 0.875636 10.3277 0.875652 10.4919V10.5003V14.4958C0.87496 14.511 0.874908 14.5263 0.875497 14.5415C0.874831 14.5556 0.874834 14.5696 0.875507 14.5836C0.875284 14.5915 0.875408 14.5993 0.875877 14.6071L0.876503 14.6175L0.878847 14.6277C0.89041 14.6778 0.907406 14.7266 0.929532 14.773C0.933098 14.7848 0.940685 14.8042 0.956478 14.823L0.970206 14.845L0.969816 14.8453L0.976259 14.8538L0.983274 14.8632C1.01687 14.9114 1.05724 14.9545 1.10315 14.9912L1.10388 14.9918C1.20995 15.0753 1.34032 15.1221 1.4753 15.125L1.4753 15.125H1.47798H5.49407C5.65977 15.125 5.81867 15.0592 5.93582 14.942C6.05298 14.8248 6.1188 14.6659 6.1188 14.5002C6.1188 14.3345 6.05298 14.1756 5.93582 14.0584C5.81867 13.9412 5.65977 13.8754 5.49407 13.8754H2.99608L5.92467 10.945C5.98434 10.8873 6.03179 10.8181 6.06419 10.7416C6.09671 10.6648 6.11339 10.5822 6.11321 10.4988ZM6.11321 10.4988C6.11321 10.4988 6.11321 10.4989 6.11321 10.4989H5.98821L6.11321 10.4986C6.11321 10.4987 6.11321 10.4987 6.11321 10.4988ZM14.5 0.877203L14.4999 0.87754L14.5092 0.878967C14.6713 0.881584 14.8261 0.947099 14.9409 1.06189C15.057 1.17807 15.1227 1.33527 15.1238 1.49944C15.1254 1.52458 15.1254 1.54978 15.1239 1.57491V5.50639V5.51339C15.1239 5.67909 15.058 5.83801 14.9409 5.95519C14.8238 6.07232 14.6649 6.13815 14.4993 6.1382M14.5 0.877203L13.9994 5.51339L13.8744 5.51304M14.5 0.877203L14.4908 0.876473C14.4678 0.874654 14.4447 0.874524 14.4218 0.876083H10.4872C10.3215 0.876083 10.1626 0.941923 10.0455 1.0591C9.92831 1.17627 9.86249 1.33519 9.86249 1.5009C9.86249 1.6666 9.92831 1.82552 10.0455 1.9427C10.1626 2.05987 10.3215 2.12571 10.4872 2.12571H12.9851L10.0545 5.0568L10.0545 5.05679L10.0533 5.058C9.99637 5.11648 9.95157 5.18564 9.92147 5.26151C9.8915 5.33704 9.8767 5.41773 9.87789 5.49898M14.5 0.877203L13.8744 3.01504M14.4993 6.1382C14.4172 6.13841 14.3359 6.12239 14.26 6.09108C14.184 6.05975 14.115 6.01371 14.0569 5.9556C13.9988 5.8975 13.9528 5.82848 13.9215 5.75254C13.8902 5.6767 13.8742 5.59542 13.8744 5.51339C13.8744 5.51327 13.8744 5.51315 13.8744 5.51304M14.4993 6.1382C14.4992 6.1382 14.4992 6.1382 14.4991 6.1382V6.0132L14.4995 6.1382C14.4994 6.1382 14.4994 6.1382 14.4993 6.1382ZM13.8744 5.51304L13.8744 3.01504M13.8744 5.51304L13.8744 3.01504M13.8744 3.01504L10.9424 5.9462L10.9411 5.94747C10.8235 6.06161 10.6657 6.12463 10.5019 6.1228M10.5019 6.1228C10.3364 6.12259 10.1778 6.05678 10.0609 5.93979C9.94394 5.82285 9.87815 5.66433 9.87789 5.49898M10.5019 6.1228C10.5016 6.1228 10.5013 6.12279 10.5011 6.12279L10.5026 5.99784V6.1228C10.5024 6.1228 10.5021 6.1228 10.5019 6.1228ZM9.87789 5.49898C9.87789 5.49865 9.87789 5.49832 9.87789 5.49799H10.0029L9.8779 5.50003C9.8779 5.49968 9.87789 5.49933 9.87789 5.49898Z" fill="currentColor" stroke="currentColor" stroke-width="0.25"/>
</svg>
