<svg width="16" height="16" viewBox="0 0 16 16" fill="none" xmlns="http://www.w3.org/2000/svg">
<path fill-rule="evenodd" clip-rule="evenodd" d="M8.00006 12.2667C5.63814 12.2667 3.7334 10.3619 3.7334 8C3.7334 5.63807 5.63814 3.73333 8.00006 3.73333C10.362 3.73333 12.2667 5.63807 12.2667 8C12.2667 8.25904 12.0686 8.45714 11.8096 8.45714C11.5505 8.45714 11.3524 8.25905 11.3524 8C11.3524 6.141 9.85916 4.64762 8.00006 4.64762C6.14097 4.64762 4.64768 6.1409 4.64768 8C4.64768 9.8591 6.14097 11.3524 8.00006 11.3524C8.25911 11.3524 8.45721 11.5505 8.45721 11.8095C8.45721 12.0686 8.25912 12.2667 8.00006 12.2667Z" fill="#112455"/>
<path fill-rule="evenodd" clip-rule="evenodd" d="M12.2667 10.1333C12.2667 10.3924 12.0686 10.5905 11.8095 10.5905H10.5905V11.8095C10.5905 12.0686 10.3924 12.2667 10.1333 12.2667C9.87428 12.2667 9.67619 12.0686 9.67619 11.8095V10.5905H8.45714C8.1981 10.5905 8 10.3924 8 10.1333C8 9.87428 8.19809 9.67619 8.45714 9.67619H9.67619V8.45714C9.67619 8.1981 9.87428 8 10.1333 8C10.3924 8 10.5905 8.19809 10.5905 8.45714V9.67619H11.8095C12.0686 9.67619 12.2667 9.87428 12.2667 10.1333Z" fill="#112455"/>
</svg>
