<svg width="147" height="165" viewBox="0 0 147 165" fill="none" xmlns="http://www.w3.org/2000/svg">
<g clip-path="url(#clip0_1152_5580)">
<path d="M146.3 48.57V115.72C146.302 118.355 145.609 120.943 144.293 123.225C142.976 125.508 141.082 127.403 138.8 128.72L80.65 162.28C78.3697 163.597 75.783 164.29 73.15 164.29C70.5169 164.29 67.9303 163.597 65.65 162.28L53.45 155.28L7.50002 128.75C5.69556 127.706 4.12861 126.296 2.89925 124.612C1.66988 122.929 0.805088 121.007 0.360003 118.97C0.119068 117.917 -0.00168838 116.84 1.78294e-05 115.76V48.57C-0.00167138 45.9353 0.690611 43.3467 2.00722 41.0646C3.32383 38.7824 5.21832 36.8873 7.50002 35.57L65.65 2C67.9303 0.68347 70.5169 -0.00964832 73.15 -0.00964832C75.783 -0.00964832 78.3697 0.68347 80.65 2L93.05 9.16003L126.38 28.4L138.8 35.57C139.264 35.8364 139.711 36.1303 140.14 36.45C142.049 37.8424 143.601 39.6659 144.672 41.772C145.742 43.8782 146.3 46.2074 146.3 48.57V48.57Z" fill="#FB8B59"/>
<path d="M139.3 52.62V111.68C139.302 114.315 138.609 116.903 137.293 119.185C135.976 121.468 134.082 123.363 131.8 124.68L86.12 151.05L80.65 154.21C78.3697 155.527 75.783 156.22 73.15 156.22C70.5169 156.22 67.9303 155.527 65.65 154.21L14.5 124.68C12.2183 123.363 10.3238 121.468 9.00721 119.185C7.6906 116.903 6.99831 114.315 7 111.68V52.62C6.99831 49.9853 7.6906 47.3967 9.00721 45.1146C10.3238 42.8324 12.2183 40.9373 14.5 39.62L65.65 10.09C67.9303 8.7735 70.5169 8.08038 73.15 8.08038C75.783 8.08038 78.3697 8.7735 80.65 10.09L131.8 39.62C134.082 40.9373 135.976 42.8324 137.293 45.1146C138.609 47.3967 139.302 49.9853 139.3 52.62V52.62Z" fill="#96411A"/>
<path d="M135.3 54.88V109.33C135.302 111.965 134.609 114.553 133.293 116.835C131.976 119.118 130.082 121.013 127.8 122.33L80.65 149.58C78.4113 150.864 75.8807 151.553 73.3 151.58C70.6164 151.614 67.9733 150.923 65.65 149.58L18.5 122.36C16.2183 121.043 14.3238 119.148 13.0072 116.865C11.6906 114.583 10.9983 111.995 11 109.36V54.88C10.9983 52.2453 11.6906 49.6567 13.0072 47.3746C14.3238 45.0924 16.2183 43.1973 18.5 41.88L65.65 14.66C67.9303 13.3435 70.5169 12.6504 73.15 12.6504C75.783 12.6504 78.3697 13.3435 80.65 14.66L127.8 41.88C130.082 43.1973 131.976 45.0924 133.293 47.3746C134.609 49.6567 135.302 52.2453 135.3 54.88V54.88Z" fill="#C55424"/>
<path d="M124.39 29.57L119.42 32.47L86.1299 13.25L91.0699 10.34L92.5099 11.17L124.39 29.57Z" fill="#FFE0A1"/>
<path d="M7 59.93V98.15L2 101.07V62.88L7 59.93Z" fill="#FFE0A1"/>
<path d="M144.3 49.49V102.17L139.3 105.09V52.62C139.3 50.2719 138.75 47.9564 137.692 45.86C136.634 43.7636 135.099 41.9448 133.21 40.55L138.21 37.62L138.34 37.71C140.189 39.0668 141.693 40.8406 142.729 42.8873C143.764 44.9341 144.303 47.1962 144.3 49.49V49.49Z" fill="#FFE0A1"/>
<path d="M60.4103 151.18L55.4103 154.08L53.9603 153.24L9.26025 127.44C7.50522 126.423 5.98163 125.051 4.78668 123.412C3.59173 121.772 2.75174 119.902 2.32031 117.92V117.77L7.32031 114.77C7.75746 116.823 8.62059 118.761 9.85394 120.46C11.0873 122.158 12.6634 123.579 14.4803 124.63L60.4103 151.18Z" fill="#FFE0A1"/>
<path d="M61.9304 136.69L37.3604 72.2899L53.1003 51.47L63.2903 41.4L67.4304 29.88L71.5203 34.2299L70.8804 28.33C70.8804 28.33 75.5403 24.28 75.5403 24.33L90.6403 39.33L95.5803 40.93L135.3 84.0499V109.38C135.302 112.015 134.61 114.603 133.293 116.885C131.977 119.168 130.082 121.063 127.8 122.38L80.6503 149.58" fill="#96411A"/>
<path d="M108.79 69.54V115.77L82.3701 136.69V132.75L106.59 113.57V67.33L102.19 50.82L94.5301 40.3L95.5801 40.91L104.39 53.02L108.79 69.54Z" fill="#ED7140"/>
<path d="M101.77 79.44L101 81.65H76.8701V79.44H101.77Z" fill="#ED7140"/>
<path d="M106.59 67.33V113.57L82.3701 132.75V101.46H94.0401L101.01 81.65H101L101.77 79.44H76.8701V29.91L94.5301 40.3L102.19 50.82L106.59 67.33Z" fill="#FFA480"/>
<path d="M75.5296 24.32V90.11L72.1396 93.84L70.5996 92.14L73.7796 88.64V24.32H75.5296Z" fill="#ED7140"/>
<path d="M73.7795 24.32V88.64L70.5995 92.14L68.7695 90.11V24.32H73.7795Z" fill="#FFA480"/>
<path d="M61.9298 101.46V136.69L35.5098 115.77V115.31L59.7298 134.49V101.46H61.9298Z" fill="#ED7140"/>
<path d="M67.4301 29.91V81.65H43.2801L50.3701 101.46H48.9401L41.0801 79.44H65.2301V31.21L66.5601 30.41L67.4301 29.91Z" fill="#ED7140"/>
<path d="M48.7198 40.91L65.2298 31.21V79.44H41.0798L48.9398 101.46H50.3698H50.2498H59.7298V134.49L35.5098 115.31V69.54L39.9098 53.02L48.7198 40.91Z" fill="#FFA480"/>
<path d="M59.7504 39.32C58.4904 40.58 57.1704 41.76 55.8404 42.92C55.1704 43.5 54.5104 44.08 53.8404 44.64C53.1704 45.2 52.4904 45.77 51.8404 46.32L52.0204 46.14C50.7504 48 49.4204 49.83 48.0904 51.64L46.0904 54.33C45.4204 55.24 44.6904 56.1 44.0004 56.99L44.1504 56.64C43.7404 58.4 43.3004 60.16 42.8004 61.9C42.3004 63.64 41.8004 65.39 41.1904 67.11C41.2804 65.29 41.4604 63.48 41.6804 61.68C41.9004 59.88 42.1504 58.09 42.4404 56.3V56.13L42.5704 55.95C43.2204 55.02 43.8404 54.08 44.5104 53.18L46.5104 50.45C47.8704 48.65 49.2404 46.86 50.6604 45.11L50.7604 44.99L50.8304 44.93C51.5504 44.43 52.3004 43.93 53.0304 43.46C53.7604 42.99 54.5104 42.46 55.2504 42.02C56.6704 41.08 58.1804 40.16 59.7504 39.32Z" fill="#FFDCCC"/>
<path fill-rule="evenodd" clip-rule="evenodd" d="M100.12 42.88C100.078 42.8414 100.023 42.8199 99.9653 42.8199C99.9079 42.8199 99.8527 42.8414 99.8103 42.88C98.8509 43.6518 97.6566 44.0726 96.4253 44.0726C95.194 44.0726 93.9996 43.6518 93.0403 42.88C92.9995 42.8507 92.9505 42.835 92.9003 42.835C92.85 42.835 92.8011 42.8507 92.7603 42.88V42.88C92.7262 42.9226 92.7076 42.9755 92.7076 43.03C92.7076 43.0846 92.7262 43.1374 92.7603 43.18C93.5279 44.1393 93.9461 45.3314 93.9461 46.56C93.9461 47.7886 93.5279 48.9807 92.7603 49.94C92.7216 49.9824 92.7002 50.0377 92.7002 50.095C92.7002 50.1524 92.7216 50.2076 92.7603 50.25C92.8026 50.2886 92.8579 50.3101 92.9153 50.3101C92.9726 50.3101 93.0279 50.2886 93.0703 50.25C94.0297 49.4781 95.224 49.0574 96.4553 49.0574C97.6866 49.0574 98.8809 49.4781 99.8403 50.25C99.8821 50.2767 99.9307 50.2909 99.9803 50.2909C100.03 50.2909 100.078 50.2767 100.12 50.25V50.25C100.15 50.2092 100.165 50.1602 100.165 50.11C100.165 50.0597 100.15 50.0108 100.12 49.97C99.351 49.0115 98.9316 47.8191 98.9316 46.59C98.9316 45.3609 99.351 44.1686 100.12 43.21V43.21C100.157 43.1667 100.177 43.1117 100.177 43.055C100.177 42.9982 100.157 42.9434 100.12 42.9V42.88Z" fill="#FFDCCC"/>
</g>
<defs>
<clipPath id="clip0_1152_5580">
<rect width="146.3" height="164.29" fill="white"/>
</clipPath>
</defs>
</svg>
