<svg width="51" height="51" viewBox="0 0 51 51" fill="none" xmlns="http://www.w3.org/2000/svg">
<path d="M46.8173 32.5821C42.6469 44.6141 29.51 50.9876 17.4752 46.8164C5.44538 42.6465 -0.928975 29.5102 3.24273 17.4793C7.41196 5.44577 20.5489 -0.928247 32.58 3.24177C44.614 7.41205 50.9878 20.5497 46.817 32.5823L46.8172 32.5821L46.8173 32.5821Z" fill="#F7931A"/>
<path fill-rule="evenodd" clip-rule="evenodd" d="M35.498 22.4241C36.2255 19.3802 34.0764 17.5165 31.0338 16.1291L32.4271 12.0423L29.9954 11.1857L28.639 15.165C27.9998 14.9396 27.342 14.7224 26.6883 14.5068L28.0543 10.5014L25.6242 9.64494L24.2305 13.7304C23.7004 13.5559 23.1798 13.3838 22.6757 13.2064L22.6798 13.1935L19.3267 12.0104L18.4215 14.6676C18.4215 14.6676 20.2289 15.2654 20.1877 15.2886C21.1723 15.6359 21.2935 16.3339 21.2148 16.8716L19.6277 21.5275C19.6955 21.5517 19.7831 21.5858 19.8788 21.6355L19.8081 21.6106L19.8079 21.6105C19.748 21.5893 19.6857 21.5673 19.6217 21.5455L17.3974 28.0676C17.2462 28.3694 16.8916 28.811 16.2031 28.5696C16.2247 28.6088 14.4358 27.9464 14.4358 27.9464L12.9397 30.7471L16.104 31.8621C16.4505 31.9847 16.7926 32.1095 17.1312 32.233C17.3678 32.3193 17.6027 32.4049 17.8363 32.4888L16.4281 36.6226L18.8569 37.4789L20.251 33.3891C20.9132 33.6383 21.5566 33.8711 22.187 34.0927L20.7981 38.1631L23.2298 39.0196L24.6371 34.8938C28.8069 36.0945 32.0271 36.0492 33.7213 32.2468C35.0862 29.1854 34.1133 27.262 31.9873 25.8742C33.6476 25.6365 34.9701 24.6532 35.4988 22.4246L35.4981 22.4239L35.498 22.4241ZM29.083 30.0635C28.118 32.8979 23.7877 31.3026 21.8064 30.5727L21.8064 30.5727C21.6281 30.507 21.4689 30.4484 21.3329 30.4006L23.2007 24.9242C23.3664 24.9827 23.5695 25.0488 23.7995 25.1237L23.7996 25.1237C25.8566 25.7935 30.0711 27.1658 29.0831 30.0635L29.083 30.0635ZM24.4535 22.563C26.1049 23.1763 29.7074 24.5142 30.5863 21.9382L30.5865 21.9382C31.4843 19.3035 27.9684 18.1702 26.2512 17.6166C26.0581 17.5543 25.8877 17.4994 25.7488 17.4505L24.0553 22.4173C24.1696 22.4575 24.3035 22.5073 24.4535 22.563Z" fill="white"/>
</svg>
