<svg width="277" height="93" viewBox="0 0 277 93" fill="none" xmlns="http://www.w3.org/2000/svg">
<path opacity="0.1" d="M250.484 38.8492C249.148 17.1684 231.203 0 209.274 0C200.154 0.000961164 191.29 3.03145 184.066 8.6188C176.841 14.2062 171.662 22.0362 169.337 30.8877C165.326 28.6502 160.857 27.3673 156.274 27.1379C151.691 26.9086 147.116 27.7388 142.904 29.5647C138.691 31.3906 134.952 34.1633 131.976 37.669C129 41.1746 126.866 45.3196 125.739 49.7841C121.709 48.7498 117.471 48.8848 113.515 50.1734C112.044 46.1506 109.708 42.5025 106.673 39.4882C103.638 36.474 99.9792 34.1678 95.956 32.7333C91.9329 31.2989 87.6443 30.7716 83.3952 31.1888C79.146 31.606 75.0406 32.9576 71.3707 35.1473C67.931 30.923 63.3368 27.7993 58.1525 26.1597C52.9683 24.5202 47.4198 24.4364 42.1888 25.9185C36.9577 27.4006 32.2719 30.3842 28.7071 34.5026C25.1422 38.6211 22.8536 43.695 22.1223 49.1011H21.8683C16.0684 49.1011 10.5062 51.4136 6.40506 55.5299C2.30397 59.6463 0 65.2292 0 71.0506C0 76.8719 2.30397 82.4548 6.40506 86.5712C10.5062 90.6875 16.0684 93 21.8683 93H250.57V92.9818C257.635 92.8411 264.362 89.9226 269.305 84.8542C274.248 79.7857 277.011 72.9723 277 65.8799C276.989 58.7874 274.205 51.9827 269.246 46.9297C264.288 41.8767 257.551 38.9792 250.486 38.8606L250.484 38.8492Z" fill="#79FFFA"/>
</svg>
