<svg width="832" height="278" viewBox="0 0 832 278" fill="none" xmlns="http://www.w3.org/2000/svg">
<path d="M751.894 115.95C747.888 51.3222 694.085 0.145508 628.333 0.145508C600.987 0.148373 574.411 9.18185 552.75 25.837C531.089 42.4922 515.561 65.8325 508.588 92.2175C496.562 85.5479 483.161 81.7238 469.42 81.04C455.679 80.3563 441.963 82.8312 429.332 88.2739C416.701 93.7166 405.492 101.982 396.568 112.432C387.645 122.881 381.246 135.237 377.865 148.545C365.785 145.462 353.075 145.865 341.215 149.706C336.804 137.714 329.799 126.84 320.7 117.855C311.601 108.87 300.63 101.995 288.567 97.7192C276.505 93.4434 263.646 91.8715 250.906 93.1152C238.165 94.3588 225.856 98.3875 214.852 104.915C204.539 92.3229 190.764 83.0113 175.22 78.1241C159.675 73.2369 143.039 72.987 127.355 77.4051C111.67 81.8231 97.6206 90.7167 86.9319 102.993C76.2433 115.27 69.3812 130.395 67.1886 146.509H66.4269C49.0371 146.509 32.3594 153.403 20.063 165.673C7.76648 177.943 0.858398 194.585 0.858398 211.938C0.858398 229.29 7.76648 245.932 20.063 258.202C32.3594 270.473 49.0371 277.366 66.4269 277.366H752.152V277.312C773.335 276.892 793.506 268.193 808.327 253.084C823.147 237.976 831.432 217.666 831.399 196.524C831.366 175.383 823.018 155.099 808.15 140.037C793.283 124.974 773.084 116.337 751.9 115.984L751.894 115.95Z" fill="#79FFFA"/>
</svg>
