<svg width="960" height="351" viewBox="0 0 960 351" fill="none" xmlns="http://www.w3.org/2000/svg">
<path d="M890.418 214.952C877.751 214.931 865.336 218.476 854.597 225.179C852.484 208.695 845.826 193.119 835.364 180.189C824.902 167.258 811.047 157.48 795.344 151.945C779.64 146.409 762.705 145.334 746.425 148.838C730.144 152.342 715.159 160.288 703.139 171.79C700.619 164.036 696.517 156.886 691.09 150.793C685.663 144.7 679.029 139.796 671.608 136.389C664.186 132.983 656.137 131.149 647.969 131.002C639.801 130.855 631.692 132.399 624.152 135.537C620.307 123.409 613.852 112.266 605.239 102.889C596.625 93.5118 586.062 86.127 574.288 81.2517C562.514 76.3764 549.814 74.1286 537.078 74.6655C524.342 75.2025 511.877 78.5113 500.557 84.3602C494.927 74.9788 486.954 67.2153 477.417 61.8281C467.881 56.4409 457.107 53.6142 446.149 53.6242C445.469 53.6242 444.741 53.6242 444.034 53.6649C436.09 35.2179 422.01 20.071 404.172 10.7813C386.334 1.49154 365.831 -1.37203 346.122 2.67401C326.414 6.72004 308.708 17.4278 295.994 32.9898C283.28 48.5517 276.336 68.0145 276.335 88.0927V88.4049C265.052 89.6475 254.508 94.6099 246.37 102.506C238.233 110.403 232.967 120.782 231.407 132.001C210.399 125.865 187.848 127.81 168.207 137.452C148.565 147.095 133.26 163.735 125.311 184.087C113.472 178.46 100.515 175.563 87.4014 175.612C74.2875 175.66 61.3527 178.653 49.5555 184.368C37.7583 190.083 27.4011 198.374 19.2516 208.626C11.102 218.879 5.36903 230.829 2.47737 243.593C-0.414282 256.357 -0.390405 269.607 2.54719 282.36C5.48479 295.113 11.2608 307.044 19.4472 317.267C27.6336 327.49 38.0206 335.743 49.8383 341.416C61.656 347.089 74.6015 350.035 87.7154 350.037H890.418C899.444 350.258 908.424 348.675 916.828 345.381C925.232 342.087 932.891 337.148 939.353 330.856C945.815 324.564 950.951 317.045 954.457 308.743C957.964 300.44 959.77 291.521 959.77 282.512C959.77 273.502 957.964 264.583 954.457 256.28C950.951 247.978 945.815 240.459 939.353 234.167C932.891 227.875 925.232 222.936 916.828 219.642C908.424 216.348 899.444 214.765 890.418 214.986V214.952Z" fill="#3CEFE4"/>
</svg>
