<svg width="85" height="85" viewBox="0 0 85 85" fill="none" xmlns="http://www.w3.org/2000/svg">
<circle cx="42.1201" cy="42.12" r="37" transform="rotate(-8.60601 42.1201 42.12)" fill="#080665"/>
<path fill-rule="evenodd" clip-rule="evenodd" d="M16.8391 32.4278L38.1019 15.5124L63.3998 25.3812L67.4516 52.1536L46.2055 69.0572L20.8909 59.2002L16.8391 32.4278ZM45.0049 61.1235L59.9565 49.2303L57.1041 30.3828L39.3028 23.4465L24.3422 35.3411L27.1946 54.1886L45.0049 61.1235Z" fill="white"/>
<path d="M54.7542 46.9312L44.0871 55.0896L31.4738 50.4545L29.536 37.6503L40.2114 29.4813L52.8164 34.127L48.3766 37.5256L41.0183 34.8125L34.7923 39.5815L35.9219 47.0453L43.2802 49.7584L49.5061 44.9894L54.7542 46.9312Z" fill="white"/>
</svg>
