<svg width="101" height="35" viewBox="0 0 101 35" fill="none" xmlns="http://www.w3.org/2000/svg">
<mask id="mask0_1005_2377" style="mask-type:luminance" maskUnits="userSpaceOnUse" x="0" y="0" width="17" height="35">
<path fill-rule="evenodd" clip-rule="evenodd" d="M0 0H16.736V34.2652H0V0Z" fill="white"/>
</mask>
<g mask="url(#mask0_1005_2377)">
<path fill-rule="evenodd" clip-rule="evenodd" d="M12.6492 11.0963V23.9922C12.6492 24.1911 12.3594 24.2141 12.3284 24.0175L8.3682 0L4.40688 24.0186C4.37583 24.2152 4.08606 24.1922 4.08606 23.9922V11.0963L0.0603454 25.4606C-0.0983375 26.024 0.0614953 26.6288 0.474301 27.0428L7.22177 33.7903C7.85535 34.4238 8.88104 34.4238 9.51348 33.7903L16.2621 27.0428C16.6761 26.6288 16.8336 26.024 16.6761 25.4606L12.6492 11.0963Z" fill="white"/>
</g>
<path fill-rule="evenodd" clip-rule="evenodd" d="M28.4285 14.9594C28.4285 13.9855 27.6386 13.1943 26.6646 13.1943H25.4492V24.6115C25.4492 25.5865 26.2392 26.3765 27.212 26.3765H31.8667C32.8418 26.3765 33.6306 25.5865 33.6306 24.6115V23.8767H28.4285V14.9594Z" fill="white"/>
<path fill-rule="evenodd" clip-rule="evenodd" d="M34.8047 14.9594V26.3765H36.0201C36.9941 26.3765 37.7852 25.5865 37.7852 24.6115V13.1943H36.5686C35.5947 13.1943 34.8047 13.9855 34.8047 14.9594" fill="white"/>
<path fill-rule="evenodd" clip-rule="evenodd" d="M41.9023 19.7235C41.9023 17.1777 42.9947 15.6748 44.7276 15.6748C46.4605 15.6748 47.554 17.1777 47.554 19.7235C47.554 21.0735 47.2826 22.1429 46.7951 22.8788C46.7019 22.7442 46.6191 22.5994 46.5536 22.4372L43.6375 22.727C43.8215 23.1731 44.0641 23.586 44.3424 23.9735C42.8395 23.7481 41.9023 22.2199 41.9023 19.7235M50.0039 24.048C49.8567 24.0618 49.7038 24.0687 49.5451 24.0687C49.4577 24.0687 49.3692 24.0618 49.2806 24.0572C50.043 22.9545 50.4949 21.5033 50.4949 19.7233C50.4949 15.5907 48.1526 13.1943 44.726 13.1943C41.3016 13.1943 38.957 15.5746 38.957 19.7233C38.957 23.8732 41.3016 26.3627 44.726 26.3627C45.5286 26.3627 46.2656 26.2144 46.9337 25.9511C47.6156 26.2075 48.3711 26.3627 49.2174 26.3627C49.6049 26.3627 49.9625 26.3351 50.281 26.2868C50.9387 26.1868 51.3734 25.5486 51.2159 24.9024C51.0825 24.3539 50.5662 23.994 50.0039 24.048" fill="white"/>
<path fill-rule="evenodd" clip-rule="evenodd" d="M60.9735 13.1953H59.8857V20.4372C59.8857 22.9704 59.0475 23.8466 57.594 23.8466C56.1452 23.8466 55.3472 22.9704 55.3472 20.4372V14.927C55.3472 13.9715 54.5721 13.1953 53.6154 13.1953H52.4219V20.1383C52.4219 24.4813 54.2444 26.3717 57.594 26.3717C60.9402 26.3717 62.7052 24.4813 62.7052 20.1383V14.927C62.7052 13.9715 61.9302 13.1953 60.9735 13.1953" fill="white"/>
<path fill-rule="evenodd" clip-rule="evenodd" d="M63.8789 14.9594V26.3765H65.0943C66.0683 26.3765 66.8594 25.5865 66.8594 24.6115V13.1943H65.6428C64.6689 13.1943 63.8789 13.9855 63.8789 14.9594" fill="white"/>
<path fill-rule="evenodd" clip-rule="evenodd" d="M71.5775 23.9773H71.0117V15.5947H71.5775C73.8128 15.5947 75.3238 16.5756 75.3238 19.7285C75.3238 22.8815 73.8128 23.9773 71.5775 23.9773M71.758 13.1953H68.0312V26.3763H71.9259C75.7837 26.3763 78.3778 24.2594 78.3778 19.7289C78.3778 15.1984 75.7837 13.1953 71.758 13.1953" fill="white"/>
<path fill-rule="evenodd" clip-rule="evenodd" d="M88.1059 13.1953H87.0169V20.4395C87.0169 22.9739 86.1787 23.8501 84.7241 23.8501C83.2752 23.8501 82.4761 22.9739 82.4761 20.4395V14.9282C82.4761 13.9715 81.701 13.1953 80.7444 13.1953H79.5508V20.1406C79.5508 24.4859 81.3745 26.3763 84.7241 26.3763C88.0725 26.3763 89.8376 24.4859 89.8376 20.1406V14.9282C89.8376 13.9715 89.0626 13.1953 88.1059 13.1953" fill="white"/>
<path fill-rule="evenodd" clip-rule="evenodd" d="M97.4814 18.9798L95.8624 18.3244C94.7527 17.8817 93.9202 17.5988 93.9202 16.8192C93.9202 16.0925 94.5503 15.6797 95.5415 15.6797C96.1176 15.6797 96.6259 15.7958 97.1134 16.0166C97.8079 16.3317 98.6313 16.112 99.1085 15.5164L99.6305 14.8644C98.5358 13.7755 97.0053 13.1982 95.5415 13.1982C92.8968 13.1982 91.0156 14.8805 91.0156 16.9871C91.0156 18.8338 92.2621 19.9158 93.5798 20.4517L95.2311 21.1554C96.3419 21.613 97.064 21.8695 97.064 22.6686C97.064 23.4241 96.4775 23.8955 95.2782 23.8955C94.2318 23.8955 93.059 23.3551 92.1552 22.5686L91.7113 23.0987C90.9892 23.9611 91.2893 25.2754 92.3138 25.7411C93.2406 26.1631 94.2456 26.377 95.2127 26.377C98.2426 26.377 100.002 24.5487 100.002 22.4375C100.002 20.6414 99.0337 19.6077 97.4814 18.9798" fill="white"/>
</svg>
