<svg width="111" height="46" viewBox="0 0 111 46" fill="none" xmlns="http://www.w3.org/2000/svg">
<rect x="1" y="1" width="109" height="44" rx="22" fill="#17E7D6" fill-opacity="0.100845"/>
<mask id="mask0_346_3231" style="mask-type:luminance" maskUnits="userSpaceOnUse" x="11" y="8" width="30" height="30">
<path fill-rule="evenodd" clip-rule="evenodd" d="M11 8H41V38H11V8Z" fill="white"/>
</mask>
<g mask="url(#mask0_346_3231)">
<path fill-rule="evenodd" clip-rule="evenodd" d="M41.0003 23C41.0003 31.2841 34.2842 38.0001 26.0001 38.0001C17.7161 38.0001 11 31.2841 11 23C11 14.716 17.7161 8 26.0001 8C34.2842 8 41.0003 14.716 41.0003 23Z" fill="#50AF94"/>
</g>
<path fill-rule="evenodd" clip-rule="evenodd" d="M27.5062 21.4173V23.3008H24.3731V21.4224C24.137 21.4366 23.9218 21.4458 23.7076 21.4621C22.7194 21.5364 21.7342 21.6341 20.7718 21.8864C20.4003 21.9841 20.0287 22.1113 19.685 22.2843C19.2307 22.5122 19.2367 22.8338 19.679 23.0821C19.8822 23.1971 20.1034 23.2897 20.3275 23.3568C21.5419 23.7282 22.7951 23.8615 24.0543 23.9206C25.1013 23.9684 26.1523 23.9735 27.1993 23.9541C28.4844 23.9317 29.7636 23.8107 31.0228 23.5349C31.483 23.4342 31.9413 23.3192 32.3517 23.0709C32.7571 22.8246 32.7631 22.5265 32.3467 22.2985C32.0698 22.1469 31.7669 22.0319 31.4631 21.9454C30.429 21.6514 29.3651 21.5445 28.3001 21.4631C28.0421 21.4428 27.7831 21.4336 27.5062 21.4173ZM27.5121 19.5287V21.0673C27.802 21.0897 28.0879 21.108 28.3739 21.1354C29.659 21.2555 30.9361 21.4295 32.1534 21.8935C32.4981 22.0248 32.8219 22.2222 33.1367 22.4196C33.33 22.5407 33.4734 22.728 33.4973 22.9783C33.5153 23.1767 33.4475 23.3568 33.3041 23.4759C33.0889 23.655 32.8657 23.833 32.6207 23.9602C31.9652 24.3011 31.2529 24.4711 30.5366 24.6176C29.5733 24.813 28.6 24.9168 27.6207 24.9788C27.5879 24.9809 27.555 24.987 27.5072 24.9931V30.5002H24.3771V24.9829C24.0055 24.9503 23.6489 24.9259 23.2942 24.8873C22.0161 24.7448 20.7469 24.5586 19.5515 24.0406C19.3234 23.9419 19.1002 23.8137 18.902 23.6641C18.363 23.2571 18.368 22.7982 18.905 22.384C19.2945 22.0838 19.7448 21.9119 20.203 21.7643C21.1325 21.4641 22.0888 21.3064 23.0531 21.1955C23.4865 21.1456 23.9198 21.112 24.3661 21.0703V19.5307H20.1183V16.3335H31.7809V16.4821C31.7809 17.4447 31.7779 18.4053 31.7849 19.3669C31.7858 19.5063 31.74 19.5307 31.6165 19.5307C30.3115 19.5277 29.0084 19.5287 27.7034 19.5287H27.5121Z" fill="white"/>
<path d="M56.945 29.16C55.3983 29.16 54.193 28.728 53.329 27.864C52.465 26.9893 52.033 25.7413 52.033 24.12V17.8H54.113V24.04C54.113 26.2373 55.0623 27.336 56.961 27.336C58.849 27.336 59.793 26.2373 59.793 24.04V17.8H61.841V24.12C61.841 25.7413 61.409 26.9893 60.545 27.864C59.6917 28.728 58.4917 29.16 56.945 29.16ZM68.226 29.16C67.362 29.16 66.5247 29.0373 65.714 28.792C64.914 28.5467 64.2793 28.2213 63.81 27.816L64.53 26.2C64.9887 26.5627 65.5487 26.8613 66.21 27.096C66.882 27.32 67.554 27.432 68.226 27.432C69.058 27.432 69.6767 27.2987 70.082 27.032C70.498 26.7653 70.706 26.4133 70.706 25.976C70.706 25.656 70.5887 25.3947 70.354 25.192C70.13 24.9787 69.842 24.8133 69.49 24.696C69.138 24.5787 68.658 24.4453 68.05 24.296C67.1967 24.0933 66.5033 23.8907 65.97 23.688C65.4473 23.4853 64.994 23.1707 64.61 22.744C64.2367 22.3067 64.05 21.72 64.05 20.984C64.05 20.3653 64.2153 19.8053 64.546 19.304C64.8873 18.792 65.394 18.3867 66.066 18.088C66.7487 17.7893 67.5807 17.64 68.562 17.64C69.2447 17.64 69.9167 17.7253 70.578 17.896C71.2393 18.0667 71.81 18.312 72.29 18.632L71.634 20.248C71.1433 19.96 70.6313 19.7413 70.098 19.592C69.5647 19.4427 69.0473 19.368 68.546 19.368C67.7247 19.368 67.1113 19.5067 66.706 19.784C66.3113 20.0613 66.114 20.4293 66.114 20.888C66.114 21.208 66.226 21.4693 66.45 21.672C66.6847 21.8747 66.978 22.0347 67.33 22.152C67.682 22.2693 68.162 22.4027 68.77 22.552C69.602 22.744 70.2847 22.9467 70.818 23.16C71.3513 23.3627 71.8047 23.6773 72.178 24.104C72.562 24.5307 72.754 25.1067 72.754 25.832C72.754 26.4507 72.5833 27.0107 72.242 27.512C71.9113 28.0133 71.4047 28.4133 70.722 28.712C70.0393 29.0107 69.2073 29.16 68.226 29.16ZM74.8165 17.8H79.7125C80.9072 17.8 81.9685 18.0347 82.8965 18.504C83.8245 18.9627 84.5445 19.6187 85.0565 20.472C85.5685 21.3147 85.8245 22.2907 85.8245 23.4C85.8245 24.5093 85.5685 25.4907 85.0565 26.344C84.5445 27.1867 83.8245 27.8427 82.8965 28.312C81.9685 28.7707 80.9072 29 79.7125 29H74.8165V17.8ZM79.6165 27.24C80.4378 27.24 81.1578 27.0853 81.7765 26.776C82.4058 26.456 82.8858 26.008 83.2165 25.432C83.5578 24.8453 83.7285 24.168 83.7285 23.4C83.7285 22.632 83.5578 21.96 83.2165 21.384C82.8858 20.7973 82.4058 20.3493 81.7765 20.04C81.1578 19.72 80.4378 19.56 79.6165 19.56H76.8965V27.24H79.6165ZM90.151 19.56H86.439V17.8H95.943V19.56H92.231V29H90.151V19.56Z" fill="#17E7D6"/>
<rect x="1" y="1" width="109" height="44" rx="22" stroke="#17E7D6"/>
</svg>
