<svg width="147" height="165" viewBox="0 0 147 165" fill="none" xmlns="http://www.w3.org/2000/svg">
<g clip-path="url(#clip0_1152_5599)">
<path d="M146.3 48.57V115.72C146.302 118.355 145.61 120.943 144.293 123.225C142.976 125.508 141.082 127.403 138.8 128.72L80.6502 162.29C78.3699 163.606 75.7832 164.3 73.1502 164.3C70.5171 164.3 67.9304 163.606 65.6502 162.29L53.4502 155.29L7.45021 128.76C5.64576 127.716 4.07881 126.306 2.84944 124.622C1.62008 122.939 0.755283 121.017 0.310198 118.98C0.0692636 117.927 -0.0514931 116.85 -0.0497869 115.77V48.57C-0.0514761 45.9353 0.640806 43.3467 1.95742 41.0646C3.27402 38.7824 5.16851 36.8873 7.45021 35.57L65.6002 2C67.8805 0.68347 70.4672 -0.00964832 73.1002 -0.00964832C75.7333 -0.00964832 78.3199 0.68347 80.6002 2L93.0003 9.16003L126.33 28.4L138.75 35.57C139.214 35.8364 139.661 36.1303 140.09 36.45C142.008 37.837 143.571 39.6582 144.65 41.7646C145.729 43.8711 146.295 46.2031 146.3 48.57V48.57Z" fill="#FECC04"/>
<path d="M139.3 52.62V111.68C139.302 114.315 138.609 116.903 137.293 119.185C135.976 121.468 134.082 123.363 131.8 124.68L86.1201 151.05L80.65 154.21C78.3697 155.527 75.783 156.22 73.15 156.22C70.5169 156.22 67.9303 155.527 65.65 154.21L14.5 124.68C12.2183 123.363 10.3238 121.468 9.00721 119.185C7.6906 116.903 6.99831 114.315 7 111.68V52.62C6.99831 49.9853 7.6906 47.3967 9.00721 45.1146C10.3238 42.8324 12.2183 40.9373 14.5 39.62L65.65 10.09C67.9303 8.7735 70.5169 8.08038 73.15 8.08038C75.783 8.08038 78.3697 8.7735 80.65 10.09L131.8 39.62C134.082 40.9373 135.976 42.8324 137.293 45.1146C138.609 47.3967 139.302 49.9853 139.3 52.62V52.62Z" fill="#A26707"/>
<path d="M135.3 54.88V109.33C135.302 111.965 134.609 114.553 133.293 116.835C131.976 119.118 130.082 121.013 127.8 122.33L80.65 149.55C78.4113 150.834 75.8807 151.523 73.3 151.55C70.6164 151.584 67.9733 150.893 65.65 149.55L18.5 122.33C16.2183 121.013 14.3238 119.118 13.0072 116.835C11.6906 114.553 10.9983 111.965 11 109.33V54.88C10.9983 52.2453 11.6906 49.6567 13.0072 47.3746C14.3238 45.0924 16.2183 43.1973 18.5 41.88L65.65 14.66C67.9303 13.3435 70.5169 12.6504 73.15 12.6504C75.783 12.6504 78.3697 13.3435 80.65 14.66L127.8 41.88C130.082 43.1973 131.976 45.0924 133.293 47.3746C134.609 49.6567 135.302 52.2453 135.3 54.88V54.88Z" fill="#C97F0A"/>
<path d="M124.39 29.57L119.42 32.47L86.1299 13.25L91.0699 10.34L92.5099 11.17L124.39 29.57Z" fill="#FFFC77"/>
<path d="M7 59.93V98.15L2 101.07V62.88L7 59.93Z" fill="#FFFC77"/>
<path d="M144.3 49.49V102.17L139.3 105.09V52.62C139.3 50.2719 138.75 47.9564 137.692 45.86C136.634 43.7636 135.099 41.9448 133.21 40.55L138.21 37.62L138.34 37.71C140.189 39.0668 141.693 40.8406 142.729 42.8873C143.764 44.9341 144.302 47.1962 144.3 49.49V49.49Z" fill="#FFFC77"/>
<path d="M60.4103 151.18L55.4103 154.08L53.9603 153.24L9.26031 127.44C7.50528 126.423 5.98163 125.051 4.78668 123.412C3.59173 121.772 2.75174 119.902 2.32031 117.92V117.77L7.32031 114.77C7.75746 116.823 8.62059 118.761 9.85394 120.46C11.0873 122.158 12.6634 123.579 14.4803 124.63L60.4103 151.18Z" fill="#FFFC77"/>
<path d="M44.5001 129.97L44.8601 52.25L43.3701 44.95L65.3701 28.36H67.8301V24.19H76.27L94.52 35.61L135.3 77.52V109.37C135.302 112.005 134.609 114.593 133.293 116.875C131.976 119.158 130.082 121.053 127.8 122.37L80.65 149.59C78.4114 150.874 75.8808 151.563 73.3 151.59L44.5001 129.97Z" fill="#A26707"/>
<path d="M103.08 47.88L72.0804 38L38.8904 48.58L30.1904 118.82C35.0204 123.02 47.3604 132.55 68.3904 140.97V81.71L44.3904 73.78L41.8104 72.92L44.2704 57.54L69.6504 60.54L96.9504 57.33L97.3605 59.89L99.5804 73.79L73.2804 82.49V140.02C99.6104 129.02 111.5 116.63 111.5 116.63L103.08 47.88ZM40.8304 111.08C40.5236 111.081 40.2195 111.022 39.9357 110.906C39.6518 110.789 39.3938 110.618 39.1764 110.401C38.959 110.185 38.7864 109.927 38.6687 109.644C38.551 109.361 38.4905 109.057 38.4905 108.75V108.75C38.5008 108.135 38.7495 107.549 39.1842 107.114C39.619 106.679 40.2057 106.43 40.8204 106.42V106.42C41.4133 106.459 41.9692 106.722 42.3754 107.155C42.7815 107.589 43.0076 108.161 43.0076 108.755C43.0076 109.349 42.7815 109.921 42.3754 110.355C41.9692 110.788 41.4133 111.051 40.8204 111.09L40.8304 111.08ZM42.0005 102.84C41.6937 102.841 41.3896 102.782 41.1057 102.666C40.8219 102.549 40.5639 102.378 40.3464 102.161C40.129 101.945 39.9565 101.687 39.8387 101.404C39.721 101.121 39.6604 100.817 39.6604 100.51C39.663 99.8929 39.9094 99.3017 40.3458 98.8654C40.7822 98.429 41.3733 98.1826 41.9905 98.18V98.18C42.5833 98.2188 43.1392 98.4817 43.5454 98.9153C43.9516 99.349 44.1775 99.9209 44.1775 100.515C44.1775 101.109 43.9516 101.681 43.5454 102.115C43.1392 102.548 42.5833 102.811 41.9905 102.85L42.0005 102.84ZM60.6904 91.08C60.7007 90.4653 60.9495 89.8786 61.3843 89.4438C61.819 89.0091 62.4056 88.7603 63.0204 88.75V88.75C63.4832 88.75 63.9356 88.8872 64.3204 89.1443C64.7052 89.4015 65.0051 89.7669 65.1823 90.1945C65.3594 90.6221 65.4057 91.0926 65.3154 91.5465C65.2251 92.0004 65.0023 92.4174 64.675 92.7446C64.3478 93.0719 63.9308 93.2948 63.4769 93.3851C63.023 93.4754 62.5526 93.429 62.125 93.2519C61.6974 93.0748 61.332 92.7748 61.0748 92.39C60.8177 92.0052 60.6804 91.5528 60.6804 91.09L60.6904 91.08ZM59.5204 99.33C59.5282 98.7145 59.7761 98.1263 60.2114 97.691C60.6467 97.2558 61.2349 97.0078 61.8505 97V97C62.3133 97 62.7657 97.1372 63.1505 97.3943C63.5353 97.6515 63.8352 98.0169 64.0123 98.4445C64.1894 98.8721 64.2358 99.3426 64.1455 99.7965C64.0552 100.25 63.8323 100.667 63.505 100.995C63.1778 101.322 62.7608 101.545 62.3069 101.635C61.853 101.725 61.3825 101.679 60.955 101.502C60.5274 101.325 60.1619 101.025 59.9048 100.64C59.6477 100.255 59.5104 99.8028 59.5104 99.34L59.5204 99.33ZM60.6804 105.24C61.1432 105.24 61.5957 105.377 61.9805 105.634C62.3653 105.891 62.6652 106.257 62.8423 106.685C63.0194 107.112 63.0658 107.583 62.9755 108.036C62.8852 108.49 62.6623 108.907 62.3351 109.235C62.0078 109.562 61.5909 109.785 61.137 109.875C60.683 109.965 60.2125 109.919 59.7849 109.742C59.3573 109.565 58.9919 109.265 58.7347 108.88C58.4776 108.495 58.3405 108.043 58.3405 107.58C58.3484 106.963 58.5998 106.374 59.0399 105.941C59.4801 105.509 60.0733 105.267 60.6904 105.27L60.6804 105.24ZM59.5104 113.49C59.9719 113.486 60.4243 113.619 60.8105 113.871C61.1968 114.124 61.4997 114.485 61.6813 114.909C61.8628 115.334 61.9149 115.802 61.8308 116.256C61.7468 116.71 61.5304 117.129 61.209 117.46C60.8875 117.791 60.4753 118.02 60.0242 118.117C59.5731 118.215 59.1032 118.177 58.6737 118.008C58.2442 117.839 57.8743 117.547 57.6104 117.168C57.3464 116.79 57.2003 116.341 57.1904 115.88C57.1865 115.572 57.2438 115.265 57.3591 114.979C57.4744 114.693 57.6454 114.433 57.8622 114.213C58.0789 113.993 58.3372 113.819 58.6218 113.7C58.9065 113.581 59.2119 113.52 59.5204 113.52L59.5104 113.49ZM58.3405 121.75C58.8009 121.752 59.2504 121.89 59.6322 122.148C60.0141 122.405 60.3111 122.769 60.486 123.195C60.6608 123.621 60.7054 124.089 60.6144 124.541C60.5234 124.992 60.3007 125.406 59.9745 125.731C59.6482 126.056 59.2331 126.277 58.7814 126.366C58.3297 126.455 57.8617 126.408 57.4365 126.232C57.0114 126.055 56.648 125.756 56.3925 125.373C56.1369 124.99 56.0005 124.54 56.0005 124.08C56.0084 123.464 56.26 122.876 56.7004 122.445C57.1409 122.014 57.7342 121.775 58.3505 121.78L58.3405 121.75ZM51.3405 87.58C51.3457 86.9646 51.5932 86.376 52.0293 85.9418C52.4654 85.5075 53.055 85.2626 53.6704 85.26V85.26C54.1304 85.262 54.5796 85.4001 54.9612 85.6569C55.3428 85.9136 55.6398 86.2776 55.8149 86.7029C55.9901 87.1283 56.0354 87.596 55.9452 88.047C55.855 88.498 55.6332 88.9123 55.308 89.2375C54.9827 89.5628 54.5685 89.7845 54.1174 89.8747C53.6664 89.9649 53.1988 89.9196 52.7734 89.7445C52.3481 89.5694 51.9841 89.2723 51.7273 88.8907C51.4705 88.5091 51.3324 88.0599 51.3304 87.6L51.3405 87.58ZM50.1904 95.88C50.1957 95.2637 50.4428 94.674 50.8787 94.2382C51.3145 93.8024 51.904 93.5552 52.5204 93.55V93.55C52.984 93.548 53.4379 93.6838 53.8242 93.9402C54.2106 94.1965 54.5121 94.5619 54.6904 94.9899C54.8688 95.4178 54.9159 95.8892 54.8259 96.3441C54.736 96.7989 54.5129 97.2168 54.1851 97.5446C53.8572 97.8725 53.4393 98.0955 52.9845 98.1855C52.5297 98.2755 52.0584 98.2283 51.6304 98.0499C51.2024 97.8716 50.8369 97.5701 50.5806 97.1838C50.3242 96.7974 50.1885 96.3437 50.1904 95.88V95.88ZM49.0204 104.13C49.0256 103.514 49.2728 102.924 49.7086 102.488C50.1445 102.052 50.7341 101.805 51.3505 101.8C51.8104 101.802 52.2595 101.94 52.6411 102.197C53.0227 102.454 53.3199 102.818 53.495 103.243C53.6701 103.668 53.7153 104.136 53.6251 104.587C53.5349 105.038 53.3132 105.452 52.9879 105.778C52.6627 106.103 52.2485 106.325 51.7975 106.415C51.3464 106.505 50.8787 106.46 50.4534 106.285C50.028 106.109 49.664 105.812 49.4072 105.431C49.1504 105.049 49.0124 104.6 49.0104 104.14L49.0204 104.13ZM47.8505 112.37C47.8557 111.754 48.1029 111.164 48.5387 110.728C48.9745 110.292 49.5641 110.045 50.1804 110.04V110.04C50.6432 110.04 51.0957 110.177 51.4805 110.434C51.8653 110.692 52.1652 111.057 52.3423 111.484C52.5194 111.912 52.5658 112.383 52.4755 112.836C52.3852 113.29 52.1623 113.707 51.8351 114.035C51.5078 114.362 51.0909 114.585 50.637 114.675C50.183 114.765 49.7125 114.719 49.2849 114.542C48.8573 114.365 48.4919 114.065 48.2347 113.68C47.9776 113.295 47.8405 112.843 47.8405 112.38L47.8505 112.37ZM49.0104 118.29C49.4732 118.29 49.9256 118.427 50.3104 118.684C50.6952 118.942 50.9953 119.307 51.1724 119.734C51.3495 120.162 51.3957 120.633 51.3054 121.086C51.2151 121.54 50.9923 121.957 50.665 122.285C50.3378 122.612 49.9208 122.835 49.4669 122.925C49.013 123.015 48.5426 122.969 48.115 122.792C47.6874 122.615 47.3219 122.315 47.0648 121.93C46.8077 121.545 46.6704 121.093 46.6704 120.63V120.63C46.6677 120.008 46.9115 119.411 47.3481 118.969C47.7848 118.527 48.379 118.275 49.0005 118.27L49.0104 118.29ZM42.0104 84.05C42.0156 83.4346 42.2631 82.846 42.6992 82.4118C43.1353 81.9776 43.725 81.7326 44.3405 81.73V81.73C44.8004 81.732 45.2495 81.87 45.6311 82.1268C46.0127 82.3836 46.3099 82.7476 46.485 83.173C46.6601 83.5983 46.7053 84.066 46.6151 84.517C46.5249 84.9681 46.3033 85.3823 45.978 85.7075C45.6528 86.0328 45.2385 86.2545 44.7875 86.3447C44.3364 86.4349 43.8687 86.3896 43.4434 86.2145C43.018 86.0394 42.654 85.7423 42.3972 85.3607C42.1404 84.9791 42.0025 84.53 42.0005 84.07L42.0104 84.05ZM43.1704 89.97C43.6332 89.97 44.0856 90.1073 44.4705 90.3644C44.8553 90.6215 45.1552 90.987 45.3323 91.4145C45.5094 91.8421 45.5557 92.3126 45.4655 92.7665C45.3752 93.2205 45.1523 93.6374 44.8251 93.9647C44.4978 94.2919 44.0809 94.5147 43.627 94.605C43.173 94.6953 42.7025 94.649 42.2749 94.4719C41.8473 94.2947 41.4819 93.9949 41.2247 93.61C40.9676 93.2252 40.8304 92.7728 40.8304 92.31C40.8278 91.9993 40.887 91.6913 41.0046 91.4037C41.1223 91.1162 41.2961 90.855 41.5157 90.6353C41.7354 90.4156 41.9966 90.2419 42.2842 90.1242C42.5717 90.0065 42.8798 89.9473 43.1904 89.95L43.1704 89.97ZM78.7505 91.14C78.7505 90.5221 78.9959 89.9294 79.4329 89.4924C79.8698 89.0555 80.4625 88.81 81.0804 88.81C81.3999 88.7891 81.7203 88.834 82.0217 88.9418C82.3232 89.0497 82.5993 89.2183 82.833 89.4372C83.0667 89.6561 83.2529 89.9205 83.3802 90.2143C83.5076 90.508 83.5734 90.8248 83.5734 91.145C83.5734 91.4652 83.5076 91.7819 83.3802 92.0757C83.2529 92.3694 83.0667 92.634 82.833 92.8528C82.5993 93.0717 82.3232 93.2403 82.0217 93.3482C81.7203 93.4561 81.3999 93.5009 81.0804 93.48C80.7711 93.4813 80.4645 93.4211 80.1787 93.3027C79.8929 93.1844 79.6335 93.0103 79.4156 92.7906C79.1978 92.5709 79.026 92.31 78.91 92.0232C78.7941 91.7364 78.7365 91.4293 78.7405 91.12L78.7505 91.14ZM79.9204 99.39C79.9204 98.9268 80.058 98.4739 80.3156 98.0889C80.5731 97.7039 80.9391 97.404 81.3673 97.2272C81.7955 97.0504 82.2664 97.0046 82.7206 97.0957C83.1748 97.1868 83.5917 97.4107 83.9186 97.7389C84.2454 98.0672 84.4675 98.4851 84.5566 98.9396C84.6458 99.3942 84.5981 99.865 84.4194 100.292C84.2408 100.72 83.9393 101.085 83.5532 101.341C83.1671 101.596 82.7137 101.732 82.2505 101.73C81.9403 101.731 81.6328 101.671 81.3463 101.552C81.0598 101.433 80.8 101.258 80.582 101.037C80.3641 100.816 80.1925 100.554 80.0771 100.266C79.9618 99.9783 79.9051 99.6702 79.9104 99.36L79.9204 99.39ZM81.0905 107.63C81.0905 107.167 81.2279 106.714 81.4855 106.329C81.743 105.944 82.1091 105.644 82.5372 105.467C82.9654 105.29 83.4364 105.245 83.8906 105.336C84.3448 105.427 84.7618 105.651 85.0886 105.979C85.4155 106.307 85.6375 106.725 85.7267 107.18C85.8158 107.634 85.7681 108.105 85.5895 108.532C85.4108 108.96 85.1093 109.325 84.7231 109.581C84.337 109.836 83.8836 109.972 83.4204 109.97C83.1114 109.97 82.8055 109.909 82.5203 109.79C82.2351 109.671 81.9762 109.497 81.7587 109.278C81.5411 109.058 81.3692 108.798 81.2528 108.512C81.1364 108.225 81.0778 107.919 81.0804 107.61L81.0905 107.63ZM82.2604 115.88C82.2604 115.417 82.398 114.964 82.6555 114.579C82.9131 114.194 83.2791 113.894 83.7073 113.717C84.1354 113.54 84.6065 113.495 85.0607 113.586C85.5149 113.677 85.9317 113.901 86.2585 114.229C86.5854 114.557 86.8076 114.975 86.8967 115.43C86.9859 115.884 86.938 116.355 86.7594 116.782C86.5808 117.21 86.2793 117.575 85.8932 117.831C85.5071 118.086 85.0537 118.222 84.5905 118.22C84.2828 118.221 83.9779 118.162 83.6934 118.045C83.4089 117.927 83.1504 117.755 82.9329 117.538C82.7153 117.32 82.543 117.062 82.4259 116.777C82.3088 116.493 82.2492 116.188 82.2505 115.88H82.2604ZM85.7604 126.46C85.3 126.458 84.8505 126.32 84.4686 126.062C84.0868 125.805 83.7898 125.441 83.615 125.015C83.4402 124.589 83.3954 124.121 83.4865 123.669C83.5775 123.218 83.8001 122.804 84.1263 122.479C84.4526 122.154 84.8679 121.933 85.3196 121.844C85.7713 121.755 86.2393 121.802 86.6644 121.978C87.0896 122.155 87.4529 122.454 87.7085 122.837C87.9641 123.219 88.1005 123.67 88.1005 124.13C88.0978 124.436 88.0349 124.738 87.9154 125.02C87.7959 125.302 87.6222 125.557 87.4039 125.772C87.1857 125.986 86.9274 126.156 86.6437 126.27C86.36 126.385 86.0565 126.443 85.7505 126.44L85.7604 126.46ZM88.1005 87.65C88.1024 87.1892 88.241 86.7393 88.4987 86.3572C88.7563 85.9752 89.1215 85.6781 89.548 85.5036C89.9745 85.3291 90.4432 85.2849 90.8948 85.3768C91.3464 85.4686 91.7606 85.6923 92.0851 86.0195C92.4095 86.3468 92.6296 86.7629 92.7175 87.2153C92.8055 87.6676 92.7574 88.1359 92.5792 88.5609C92.401 88.9859 92.1008 89.3485 91.7166 89.6029C91.3323 89.8573 90.8812 89.992 90.4204 89.99C90.1098 89.9914 89.802 89.9305 89.5154 89.8108C89.2288 89.6911 88.9691 89.515 88.7518 89.293C88.5345 89.0711 88.364 88.8077 88.2504 88.5186C88.1368 88.2295 88.0824 87.9205 88.0905 87.61L88.1005 87.65ZM89.2604 95.89C89.2604 95.4268 89.398 94.9739 89.6555 94.5889C89.9131 94.2039 90.2791 93.904 90.7073 93.7272C91.1354 93.5504 91.6065 93.5046 92.0607 93.5957C92.5149 93.6868 92.9317 93.9107 93.2585 94.2389C93.5854 94.5672 93.8076 94.9851 93.8967 95.4396C93.9859 95.8942 93.938 96.365 93.7594 96.7924C93.5808 97.2198 93.2793 97.5846 92.8932 97.8405C92.5071 98.0964 92.0537 98.232 91.5905 98.23C91.2823 98.23 90.9772 98.1691 90.6926 98.0509C90.4081 97.9327 90.1497 97.7594 89.9323 97.5411C89.7148 97.3227 89.5427 97.0636 89.4257 96.7786C89.3087 96.4935 89.2492 96.1881 89.2505 95.88L89.2604 95.89ZM90.4304 104.14C90.4284 103.676 90.5643 103.223 90.8207 102.836C91.077 102.45 91.4424 102.148 91.8704 101.97C92.2983 101.792 92.7696 101.745 93.2245 101.835C93.6793 101.925 94.0972 102.148 94.425 102.475C94.7529 102.803 94.9759 103.221 95.0659 103.676C95.1559 104.131 95.1088 104.602 94.9304 105.03C94.7521 105.458 94.4505 105.823 94.0642 106.08C93.6779 106.336 93.224 106.472 92.7604 106.47C92.4514 106.47 92.1456 106.409 91.8604 106.29C91.5751 106.171 91.3162 105.997 91.0986 105.778C90.8811 105.558 90.7092 105.298 90.5928 105.012C90.4764 104.725 90.4178 104.419 90.4204 104.11L90.4304 104.14ZM91.6005 112.38C91.6005 111.917 91.7379 111.464 91.9955 111.079C92.2531 110.694 92.6191 110.394 93.0472 110.217C93.4754 110.04 93.9464 109.995 94.4006 110.086C94.8548 110.177 95.2718 110.401 95.5986 110.729C95.9255 111.057 96.1475 111.475 96.2367 111.93C96.3259 112.384 96.278 112.855 96.0994 113.282C95.9207 113.71 95.6193 114.075 95.2332 114.331C94.847 114.586 94.3936 114.722 93.9304 114.72C93.6202 114.721 93.3129 114.661 93.0264 114.542C92.7399 114.423 92.48 114.248 92.2621 114.027C92.0441 113.806 91.8724 113.544 91.7571 113.256C91.6417 112.968 91.5851 112.66 91.5905 112.35L91.6005 112.38ZM95.1005 122.96C94.7945 122.96 94.4914 122.9 94.2087 122.783C93.9261 122.666 93.6692 122.494 93.4529 122.278C93.2365 122.061 93.0648 121.804 92.9478 121.522C92.8307 121.239 92.7704 120.936 92.7704 120.63V120.63C92.7704 120.167 92.908 119.714 93.1655 119.329C93.4231 118.944 93.7891 118.644 94.2173 118.467C94.6454 118.29 95.1165 118.245 95.5707 118.336C96.0249 118.427 96.4417 118.651 96.7686 118.979C97.0954 119.307 97.3176 119.725 97.4067 120.18C97.4959 120.634 97.4481 121.105 97.2694 121.532C97.0908 121.96 96.7893 122.325 96.4032 122.581C96.0171 122.836 95.5637 122.972 95.1005 122.97V122.96ZM97.4404 84.07C97.4404 83.6068 97.5779 83.1539 97.8354 82.7689C98.093 82.3839 98.4592 82.084 98.8873 81.9072C99.3155 81.7304 99.7864 81.6846 100.241 81.7757C100.695 81.8668 101.112 82.0907 101.439 82.4189C101.765 82.7472 101.988 83.1651 102.077 83.6196C102.166 84.0742 102.118 84.545 101.939 84.9724C101.761 85.3998 101.459 85.7646 101.073 86.0205C100.687 86.2764 100.234 86.412 99.7704 86.41C99.4589 86.4128 99.1501 86.3528 98.8623 86.2337C98.5745 86.1146 98.3137 85.9387 98.0953 85.7166C97.877 85.4945 97.7055 85.2307 97.5913 84.941C97.4771 84.6512 97.4224 84.3414 97.4304 84.03L97.4404 84.07ZM98.6105 92.31C98.6105 91.8468 98.7479 91.3939 99.0055 91.0089C99.2631 90.6239 99.6291 90.324 100.057 90.1472C100.485 89.9704 100.956 89.9246 101.411 90.0157C101.865 90.1068 102.282 90.3307 102.609 90.6589C102.935 90.9872 103.158 91.4051 103.247 91.8597C103.336 92.3142 103.288 92.7851 103.109 93.2125C102.931 93.6399 102.629 94.0046 102.243 94.2605C101.857 94.5164 101.404 94.652 100.94 94.65C100.63 94.6514 100.323 94.5908 100.036 94.4718C99.7499 94.3528 99.4901 94.1778 99.2721 93.957C99.0541 93.7363 98.8824 93.4743 98.7671 93.1863C98.6518 92.8983 98.5951 92.5902 98.6005 92.28L98.6105 92.31ZM99.7804 100.56C99.7804 100.097 99.918 99.6439 100.176 99.2589C100.433 98.8739 100.799 98.574 101.227 98.3972C101.655 98.2204 102.127 98.1746 102.581 98.2657C103.035 98.3568 103.452 98.5807 103.779 98.9089C104.105 99.2372 104.327 99.6551 104.417 100.11C104.506 100.564 104.458 101.035 104.279 101.462C104.101 101.89 103.799 102.255 103.413 102.51C103.027 102.766 102.574 102.902 102.11 102.9C101.8 102.901 101.493 102.841 101.206 102.722C100.92 102.603 100.66 102.428 100.442 102.207C100.224 101.986 100.052 101.724 99.9371 101.436C99.8218 101.148 99.7651 100.84 99.7704 100.53L99.7804 100.56ZM103.28 111.13C102.662 111.13 102.07 110.885 101.633 110.448C101.196 110.011 100.95 109.418 100.95 108.8V108.8C100.95 108.337 101.088 107.884 101.345 107.499C101.603 107.114 101.969 106.814 102.397 106.637C102.825 106.46 103.296 106.415 103.751 106.506C104.205 106.597 104.622 106.821 104.949 107.149C105.275 107.477 105.498 107.895 105.587 108.35C105.676 108.804 105.628 109.275 105.449 109.702C105.271 110.13 104.969 110.495 104.583 110.75C104.197 111.006 103.744 111.142 103.28 111.14V111.13Z" fill="#FFDF2B"/>
<path d="M97.4201 59.84L72.0501 62.84L46.6701 59.88L44.4401 73.77L41.8701 72.92L44.3301 57.54L69.7101 60.5L97.0101 57.28L97.4201 59.84Z" fill="#FABE00"/>
<path d="M70.7505 82.48V143.31C42.7505 132.11 30.1904 118.96 30.1904 118.96V118.82C35.0204 123.02 47.3604 132.55 68.3904 140.97V81.71L70.7505 82.48Z" fill="#FABE00"/>
<path d="M113.91 118.96C113.91 118.96 101.31 132.11 73.3496 143.31V140.01C99.6796 129.01 111.57 116.62 111.57 116.62L103.08 47.88L105.21 48.55L113.91 118.96Z" fill="#FABE00"/>
<path d="M76.2703 24.18V37.16L72.0503 35.75L67.8203 37.16V24.18H76.2703Z" fill="#FFDF2B"/>
<path d="M100.73 44.95L78.7305 38.03V28.36C86.2305 29.93 91.2104 32.74 94.5104 35.61C99.7904 40.2 100.73 44.95 100.73 44.95Z" fill="#FEEA3D"/>
<path d="M65.3701 28.36V38.03L43.3701 44.95C43.5443 44.2123 43.7957 43.495 44.1201 42.81C45.6901 39.26 50.32 32.22 63.03 28.91C63.78 28.71 64.5601 28.53 65.3701 28.36Z" fill="#FEEA3D"/>
<path d="M71.3701 42.56C66.6801 44.49 61.93 46.23 57.15 47.91C52.37 49.59 47.58 51.18 42.77 52.73L43.4401 51.99C43.0601 53.73 42.65 55.47 42.13 57.18C41.88 58.04 41.59 58.89 41.29 59.74C40.9986 60.5928 40.6649 61.4305 40.29 62.25C40.29 61.34 40.2901 60.44 40.3601 59.53C40.4301 58.62 40.51 57.74 40.63 56.86C40.84 55.08 41.17 53.32 41.53 51.58L41.65 51.01L42.2001 50.83C47.0301 49.32 51.8601 47.83 56.7301 46.44C61.6001 45.05 66.4301 43.71 71.3701 42.56Z" fill="#FFF099"/>
<path d="M90.4102 80.81C88.2881 81.8952 86.1081 82.8633 83.8802 83.71C82.7802 84.15 81.6602 84.54 80.5402 84.95C79.4202 85.36 78.3002 85.72 77.1802 86.08L77.8703 85.2C77.8703 85.78 77.7802 86.36 77.7102 86.94C77.6402 87.52 77.5502 88.09 77.4202 88.66C77.3131 89.24 77.1762 89.8141 77.0102 90.38C76.8515 90.965 76.6476 91.5367 76.4002 92.09C76.2374 91.5083 76.1105 90.9172 76.0202 90.32C75.9502 89.73 75.8802 89.14 75.8502 88.56C75.8202 87.98 75.8502 87.39 75.8502 86.81C75.8502 86.23 75.8502 85.64 75.9202 85.06V84.38L76.5602 84.18C77.6902 83.83 78.8202 83.48 79.9602 83.18C81.1002 82.88 82.2402 82.53 83.4002 82.26C85.7085 81.6488 88.0487 81.1647 90.4102 80.81V80.81Z" fill="#FFF099"/>
<path fill-rule="evenodd" clip-rule="evenodd" d="M91.7902 54.77C91.7468 54.7334 91.6919 54.7133 91.6351 54.7133C91.5784 54.7133 91.5236 54.7334 91.4802 54.77C90.5209 55.5419 89.3265 55.9626 88.0952 55.9626C86.8639 55.9626 85.6696 55.5419 84.7102 54.77C84.6684 54.7433 84.6198 54.7291 84.5702 54.7291C84.5206 54.7291 84.472 54.7433 84.4302 54.77V54.77C84.3961 54.8126 84.3776 54.8655 84.3776 54.92C84.3776 54.9745 84.3961 55.0274 84.4302 55.07C85.1978 56.0293 85.616 57.2214 85.616 58.45C85.616 59.6786 85.1978 60.8707 84.4302 61.83C84.3915 61.8724 84.3701 61.9276 84.3701 61.985C84.3701 62.0423 84.3915 62.0976 84.4302 62.14C84.4725 62.1787 84.5279 62.2001 84.5852 62.2001C84.6426 62.2001 84.6979 62.1787 84.7402 62.14C85.6996 61.3682 86.8939 60.9473 88.1252 60.9473C89.3566 60.9473 90.5508 61.3682 91.5101 62.14V62.14C91.5509 62.1693 91.5999 62.1851 91.6501 62.1851C91.7004 62.1851 91.7494 62.1693 91.7902 62.14V62.14C91.8195 62.0992 91.8352 62.0502 91.8352 62C91.8352 61.9498 91.8195 61.9008 91.7902 61.86C91.0208 60.9014 90.6016 59.7091 90.6016 58.48C90.6016 57.2509 91.0208 56.0585 91.7902 55.1V55.1C91.8288 55.0576 91.8502 55.0024 91.8502 54.945C91.8502 54.8877 91.8288 54.8323 91.7902 54.79V54.79V54.77Z" fill="#FFF099"/>
</g>
<defs>
<clipPath id="clip0_1152_5599">
<rect width="146.3" height="164.29" fill="white"/>
</clipPath>
</defs>
</svg>
