<svg width="147" height="165" viewBox="0 0 147 165" fill="none" xmlns="http://www.w3.org/2000/svg">
<g clip-path="url(#clip0_1152_5618)">
<path d="M146.3 48.57V115.72C146.302 118.355 145.61 120.943 144.293 123.225C142.976 125.508 141.082 127.403 138.8 128.72L80.6502 162.28C78.3699 163.597 75.7832 164.29 73.1502 164.29C70.5171 164.29 67.9304 163.597 65.6502 162.28L53.4502 155.28L7.45021 128.75C5.64576 127.706 4.07881 126.296 2.84944 124.612C1.62008 122.929 0.755283 121.007 0.310198 118.97C0.0692636 117.917 -0.0514931 116.84 -0.0497869 115.76V48.57C-0.0514761 45.9353 0.640806 43.3467 1.95742 41.0646C3.27402 38.7824 5.16851 36.8873 7.45021 35.57L65.6002 2C67.8805 0.68347 70.4671 -0.00964832 73.1002 -0.00964832C75.7332 -0.00964832 78.3199 0.68347 80.6002 2L93.0002 9.16003L126.33 28.4L138.75 35.57C139.214 35.8364 139.661 36.1303 140.09 36.45C142.008 37.837 143.571 39.6582 144.65 41.7646C145.729 43.8711 146.295 46.2031 146.3 48.57V48.57Z" fill="#CDDEED"/>
<path d="M139.3 52.62V111.68C139.302 114.315 138.61 116.903 137.293 119.185C135.976 121.468 134.082 123.363 131.8 124.68L86.1102 151.04L80.6403 154.2C78.36 155.517 75.7733 156.21 73.1403 156.21C70.5072 156.21 67.9206 155.517 65.6403 154.2L14.4902 124.67C12.2085 123.353 10.314 121.458 8.99744 119.175C7.68083 116.893 6.98855 114.305 6.99024 111.67V52.62C6.98855 49.9853 7.68083 47.3967 8.99744 45.1146C10.314 42.8324 12.2085 40.9373 14.4902 39.62L65.6403 10.09C67.9206 8.7735 70.5072 8.08038 73.1403 8.08038C75.7733 8.08038 78.36 8.7735 80.6403 10.09L131.79 39.62C134.074 40.9361 135.97 42.8306 137.289 45.1128C138.607 47.395 139.301 49.9843 139.3 52.62Z" fill="#788B9B"/>
<path d="M135.3 54.88V109.33C135.302 111.965 134.609 114.553 133.293 116.835C131.976 119.118 130.082 121.013 127.8 122.33L80.65 149.58C78.4113 150.864 75.8807 151.553 73.3 151.58C70.6164 151.614 67.9733 150.923 65.65 149.58L18.5 122.36C16.2183 121.043 14.3238 119.148 13.0072 116.865C11.6906 114.583 10.9983 111.995 11 109.36V54.88C10.9983 52.2453 11.6906 49.6567 13.0072 47.3746C14.3238 45.0924 16.2183 43.1973 18.5 41.88L65.65 14.66C67.9303 13.3435 70.5169 12.6504 73.15 12.6504C75.783 12.6504 78.3697 13.3435 80.65 14.66L127.8 41.88C130.082 43.1973 131.976 45.0924 133.293 47.3746C134.609 49.6567 135.302 52.2453 135.3 54.88V54.88Z" fill="#9FB7CB"/>
<path d="M124.39 29.57L119.42 32.47L86.1299 13.25L91.0699 10.34L92.5099 11.17L124.39 29.57Z" fill="white"/>
<path d="M7 59.93V98.15L2 101.07V62.88L7 59.93Z" fill="white"/>
<path d="M144.3 49.49V102.17L139.3 105.09V52.62C139.3 50.2719 138.75 47.9564 137.692 45.86C136.634 43.7636 135.099 41.9448 133.21 40.55L138.21 37.62L138.34 37.71C140.189 39.0668 141.693 40.8406 142.729 42.8873C143.764 44.9341 144.303 47.1962 144.3 49.49V49.49Z" fill="white"/>
<path d="M60.4103 151.18L55.4103 154.08L53.9603 153.24L9.26031 127.44C7.50528 126.423 5.98163 125.051 4.78668 123.412C3.59173 121.772 2.75174 119.902 2.32031 117.92V117.77L7.32031 114.77C7.75746 116.823 8.62059 118.761 9.85394 120.46C11.0873 122.158 12.6634 123.579 14.4803 124.63L60.4103 151.18Z" fill="white"/>
<path d="M59.6396 139.34L37.3496 72.29L53.1096 51.47L63.2896 41.4L71.5196 43.22V34.22L70.8896 28.32L72.0496 20.17L96.4096 43.88L135.3 84.06V109.39C135.301 112.025 134.609 114.613 133.292 116.895C131.976 119.178 130.081 121.073 127.8 122.39L80.6496 149.58" fill="#788B9B"/>
<path d="M108.38 71.62V85.99C108.38 126.15 85.1804 138.99 84.4404 139.34C85.3561 137.547 86.093 135.668 86.6404 133.73C93.6404 127.82 106.05 113.08 106.05 83.66V71.66L108.38 71.62Z" fill="#AAC5DD"/>
<path d="M100.11 90.29C98.1096 90.89 92.8996 92.49 90.1896 93.29C85.5696 94.61 77.6396 93.96 77.6396 93.96C77.2996 101.73 80.4396 116.08 80.4396 116.08L72.0196 122.36L63.5996 116.08L63.7096 115.57L69.7096 120.03L78.1396 113.75C78.1396 113.75 74.9996 99.39 75.3396 91.62C75.3396 91.62 83.2596 92.27 87.8896 90.96C92.5196 89.65 100.11 87.24 100.11 87.24C100.196 88.2548 100.196 89.2752 100.11 90.29V90.29Z" fill="#AAC5DD"/>
<path d="M66.4403 93.98C63.7303 94.08 56.9103 94.12 53.8803 93.26C49.2403 91.94 43.9702 90.26 43.9702 90.26C43.774 93.778 44.2727 97.3001 45.4378 100.625C46.6028 103.951 48.4114 107.014 50.7603 109.64C47.6945 106.949 45.2805 103.596 43.7006 99.8351C42.1206 96.0741 41.4161 92.0032 41.6403 87.93C41.6403 87.93 46.9102 89.59 51.5402 90.93C56.1702 92.27 66.4403 91.52 66.4403 91.52C66.4703 92.28 66.4703 93.11 66.4403 93.98Z" fill="#AAC5DD"/>
<path d="M59.6404 139.34C56.579 137.501 53.8142 135.208 51.4404 132.54C53.2179 134.249 55.1878 135.745 57.3104 137C52.4304 127.54 53.1204 114.73 53.3104 112.19C54.0675 112.857 54.8585 113.485 55.6804 114.07C55.6804 114.07 54.2004 128.77 59.6404 139.34Z" fill="#AAC5DD"/>
<path d="M78.6601 34.28H77.0801V71.62H78.6601V34.28Z" fill="#AAC5DD"/>
<path d="M76.3198 32.81C76.1898 33.07 75.4698 34.09 75.3198 34.29L73.7498 33.51C74.1493 33.0611 74.4857 32.5598 74.7498 32.02C75.1023 31.3392 75.3149 30.5947 75.375 29.8304C75.4351 29.0661 75.3415 28.2975 75.0997 27.57C74.1433 25.2476 72.9398 23.0348 71.5098 20.97C71.557 20.9164 71.6004 20.8596 71.6398 20.8C71.8898 20.42 72.0397 20.21 72.0397 20.21C72.0397 20.21 75.5197 25.04 76.6697 28.35C76.9158 29.0785 77.0116 29.8493 76.9515 30.6158C76.8913 31.3824 76.6764 32.1288 76.3198 32.81V32.81Z" fill="#AAC5DD"/>
<path d="M106.05 71.62V83.62C106.05 113.04 93.59 127.78 86.64 133.69C86.92 132.69 87.16 131.75 87.38 130.78C88.4896 125.27 88.8262 119.633 88.38 114.03C92.2013 111.403 95.2858 107.841 97.3392 103.683C99.3927 99.5255 100.347 94.9111 100.11 90.28V90.28C100.195 89.2818 100.195 88.2782 100.11 87.28L98.61 87.75C96.17 88.49 91.24 90.01 87.87 90.97C83.24 92.28 75.32 91.63 75.32 91.63C74.98 99.4 78.89 114.43 78.89 114.43L70.46 120.71L68.39 119.06L63.72 115.58C64.28 112.95 66.72 100.86 66.41 93.97C66.41 93.11 66.41 92.31 66.41 91.56C66.41 91.56 65.81 91.61 64.84 91.64C61.84 91.79 55.03 91.97 51.51 90.97C46.88 89.65 41.61 87.97 41.61 87.97C41.3859 92.0432 42.0904 96.1141 43.6703 99.8751C45.2502 103.636 47.6642 106.989 50.73 109.68C51.5305 110.575 52.3855 111.42 53.29 112.21C53.09 114.75 52.4 127.56 57.29 137.02C57.18 136.96 56.55 136.61 55.56 135.93C54.103 134.905 52.7196 133.779 51.42 132.56V132.56C44.48 125.08 35.71 110.74 35.71 86.03V71.62H65.43V34.29H68.73C68.023 33.4939 67.5315 32.5301 67.3022 31.4904C67.0729 30.4507 67.1134 29.3696 67.42 28.35C68.5057 25.7461 69.8775 23.2709 71.51 20.97C72.94 23.0348 74.1436 25.2476 75.1 27.57C75.3418 28.2975 75.4354 29.0661 75.3752 29.8304C75.3151 30.5947 75.1026 31.3392 74.75 32.02C74.4859 32.5598 74.1495 33.0611 73.75 33.51L75.32 34.29H77.11V71.62H106.11H106.05Z" fill="#DEEEFB"/>
<path d="M106.72 68.32H80.79V37.43C86.0449 37.327 91.1499 39.1843 95.11 42.64C105.29 51.44 106.72 68.32 106.72 68.32Z" fill="#DEEEFB"/>
<path d="M63.2796 37.43V68.32H37.3496C37.3496 68.32 37.4196 67.44 37.6696 65.99C38.7796 59.1 43.4896 39.18 60.9496 37.54C61.7238 37.4622 62.5015 37.4255 63.2796 37.43V37.43Z" fill="#DEEEFB"/>
<path d="M62.1099 74.88C58.3599 75.31 54.6099 75.55 50.8599 75.72C47.1099 75.89 43.3599 75.96 39.6099 76.01L40.6099 75.11C40.4641 76.5868 40.2438 78.0554 39.9499 79.51C39.7999 80.24 39.6199 80.97 39.4299 81.69C39.2321 82.4267 38.9917 83.1512 38.7098 83.86C38.5816 83.1083 38.4915 82.3508 38.4399 81.59C38.4399 80.84 38.3799 80.1 38.3799 79.35C38.3799 77.86 38.4899 76.35 38.6299 74.91L38.7198 74.01H39.6199C43.3699 74.01 47.1199 74.01 50.8699 74.17C54.6199 74.33 58.3399 74.52 62.1099 74.88Z" fill="#F9FCFE"/>
<path fill-rule="evenodd" clip-rule="evenodd" d="M100.11 44.2C100.067 44.1634 100.012 44.1432 99.9549 44.1432C99.8981 44.1432 99.8433 44.1634 99.7999 44.2C98.8398 44.9701 97.6457 45.3898 96.4149 45.3898C95.1841 45.3898 93.99 44.9701 93.0299 44.2C92.9897 44.1692 92.9406 44.1525 92.89 44.1525C92.8393 44.1525 92.7901 44.1692 92.7499 44.2V44.2C92.7183 44.2417 92.7012 44.2927 92.7012 44.345C92.7012 44.3974 92.7183 44.4483 92.7499 44.49C93.5218 45.4493 93.9426 46.6437 93.9426 47.875C93.9426 49.1063 93.5218 50.3006 92.7499 51.26C92.7159 51.3026 92.6973 51.3555 92.6973 51.41C92.6973 51.4646 92.7159 51.5174 92.7499 51.56V51.56C92.7956 51.5957 92.8519 51.615 92.9099 51.615C92.9679 51.615 93.0242 51.5957 93.0699 51.56C94.0285 50.7907 95.2208 50.3714 96.45 50.3714C97.6791 50.3714 98.8713 50.7907 99.8299 51.56V51.56C99.8701 51.5908 99.9193 51.6075 99.9699 51.6075C100.021 51.6075 100.07 51.5908 100.11 51.56V51.56C100.138 51.5207 100.154 51.4735 100.154 51.425C100.154 51.3765 100.138 51.3292 100.11 51.29C99.3432 50.3283 98.9257 49.1349 98.9257 47.905C98.9257 46.6751 99.3432 45.4817 100.11 44.52C100.146 44.4783 100.166 44.425 100.166 44.37C100.166 44.3149 100.146 44.2618 100.11 44.22V44.2Z" fill="#F9FCFE"/>
</g>
<defs>
<clipPath id="clip0_1152_5618">
<rect width="146.3" height="164.29" fill="white"/>
</clipPath>
</defs>
</svg>
