<svg width="147" height="165" viewBox="0 0 147 165" fill="none" xmlns="http://www.w3.org/2000/svg">
<g clip-path="url(#clip0_1152_5550)">
<path d="M146.26 48.57V115.72C146.262 118.355 145.57 120.943 144.253 123.225C142.936 125.508 141.042 127.403 138.76 128.72L80.6101 162.29C78.3298 163.606 75.7432 164.3 73.1101 164.3C70.4771 164.3 67.8904 163.606 65.6101 162.29L53.4102 155.29L7.41017 128.76C5.60572 127.716 4.03883 126.306 2.80947 124.622C1.5801 122.939 0.715244 121.017 0.270159 118.98C0.0292246 117.927 -0.0915321 116.85 -0.0898259 115.77V48.57C-0.0915151 45.9353 0.600767 43.3467 1.91738 41.0646C3.23399 38.7824 5.12847 36.8873 7.41017 35.57L65.5602 2C67.8405 0.68347 70.4271 -0.00964832 73.0602 -0.00964832C75.6932 -0.00964832 78.2799 0.68347 80.5602 2L92.9601 9.16003L126.29 28.4L138.71 35.57C139.174 35.8364 139.621 36.1303 140.05 36.45C141.968 37.837 143.531 39.6582 144.61 41.7646C145.689 43.8711 146.255 46.2031 146.26 48.57V48.57Z" fill="#87ACFF"/>
<path d="M139.26 52.62V111.68C139.262 114.315 138.569 116.903 137.253 119.185C135.936 121.468 134.042 123.363 131.76 124.68L86.08 151.05L80.61 154.21C78.3297 155.527 75.743 156.22 73.11 156.22C70.4769 156.22 67.8903 155.527 65.61 154.21L14.46 124.68C12.1783 123.363 10.2838 121.468 8.96717 119.185C7.65056 116.903 6.95827 114.315 6.95996 111.68V52.62C6.95827 49.9853 7.65056 47.3967 8.96717 45.1146C10.2838 42.8324 12.1783 40.9373 14.46 39.62L65.61 10.09C67.8903 8.7735 70.4769 8.08038 73.11 8.08038C75.743 8.08038 78.3297 8.7735 80.61 10.09L131.76 39.62C134.042 40.9373 135.936 42.8324 137.253 45.1146C138.569 47.3967 139.262 49.9853 139.26 52.62Z" fill="#3158B1"/>
<path d="M135.26 54.88V109.33C135.262 111.965 134.569 114.553 133.253 116.835C131.936 119.118 130.042 121.013 127.76 122.33L80.61 149.55C78.3713 150.834 75.8407 151.523 73.26 151.55C70.5764 151.584 67.9333 150.893 65.61 149.55L18.46 122.33C16.1783 121.013 14.2838 119.118 12.9672 116.835C11.6506 114.553 10.9583 111.965 10.96 109.33V54.88C10.9583 52.2453 11.6506 49.6567 12.9672 47.3746C14.2838 45.0924 16.1783 43.1973 18.46 41.88L65.61 14.66C67.8903 13.3435 70.4769 12.6504 73.11 12.6504C75.743 12.6504 78.3297 13.3435 80.61 14.66L127.76 41.88C130.042 43.1973 131.936 45.0924 133.253 47.3746C134.569 49.6567 135.262 52.2453 135.26 54.88Z" fill="#4174E8"/>
<path d="M124.39 29.57L119.42 32.47L86.1299 13.25L91.0699 10.34L92.5099 11.17L124.39 29.57Z" fill="#DFEEFF"/>
<path d="M7 59.93V98.15L2 101.07V62.88L7 59.93Z" fill="#DFEEFF"/>
<path d="M144.26 49.49V102.17L139.26 105.09V52.62C139.26 50.2719 138.71 47.9564 137.652 45.86C136.594 43.7636 135.059 41.9448 133.17 40.55L138.17 37.62L138.3 37.71C140.149 39.0668 141.653 40.8406 142.688 42.8873C143.724 44.9341 144.262 47.1962 144.26 49.49V49.49Z" fill="#DFEEFF"/>
<path d="M60.4103 151.18L55.4103 154.08L53.9602 153.24L9.26025 127.44C7.50522 126.423 5.98157 125.051 4.78662 123.412C3.59167 121.772 2.75174 119.902 2.32031 117.92V117.77L7.32031 114.77C7.75746 116.823 8.62053 118.761 9.85388 120.46C11.0872 122.158 12.6633 123.579 14.4802 124.63L60.4103 151.18Z" fill="#DFEEFF"/>
<path d="M135.26 77.52V109.37C135.262 112.005 134.57 114.593 133.253 116.875C131.936 119.158 130.042 121.053 127.76 122.37L80.6102 149.59C78.3716 150.874 75.841 151.563 73.2603 151.59L65.0103 143.34V143.29L43.7402 80.99L44.8203 52.25L44.9303 49.44L62.0203 33.09L63.5603 32.38L81.4902 24.18L135.26 77.52Z" fill="#3158B1"/>
<path d="M102.51 53.66L72.0396 40.66L39.2295 54.66V94.25L42.9396 101.25V114.45C42.9396 114.45 52.1795 129.94 62.4895 140.74C63.3295 141.64 64.1896 142.5 65.0496 143.32C65.0496 143.32 60.6495 115.92 60.1995 96.06L49.2595 90.3V82.18L64.6995 88.53L67.0895 89.53L64.7095 104.76L70.3895 111.85L72.0396 113.85L79.3795 104.72L76.9995 89.49L94.8295 82.16V90.28L83.8895 96.03C83.5495 111.15 80.8896 130.65 79.6796 139.09C79.2896 141.74 79.0396 143.29 79.0396 143.29C90.3096 132.57 101.15 114.42 101.15 114.42V101.22L104.87 94.22V54.66L102.51 53.66Z" fill="#3158B1"/>
<path d="M72.0403 38.62L78.1503 40.62C80.0774 35.3217 81.2162 29.7692 81.5303 24.14H62.5303C62.8506 29.7693 63.9927 35.3214 65.9203 40.62L72.0403 38.62Z" fill="#3158B1"/>
<path d="M80.0498 41.35L99.1198 49.44C99.1198 49.44 96.7198 37.64 82.0298 33.1C82.0298 33.1 82.1098 35.99 80.0498 41.35Z" fill="#3158B1"/>
<path d="M62.0598 33.1C47.3698 37.64 44.9697 49.44 44.9697 49.44L64.0398 41.35C61.9798 35.99 62.0598 33.1 62.0598 33.1Z" fill="#3158B1"/>
<path d="M104.87 54.66V94.25L101.15 101.25V114.45C101.15 114.45 90.31 132.6 79.04 143.32C79.04 143.32 79.2901 141.77 79.6801 139.12C89.8101 128.33 98.79 113.27 98.79 113.27V100.07L102.51 93.07V53.66L104.87 54.66Z" fill="#5D9CFF"/>
<path d="M94.8297 82.17L77.0097 89.5L79.3796 104.74L72.0396 113.87L70.3896 111.82L77.0296 103.56L74.6497 88.33L94.8297 80.03V82.17Z" fill="#5D9CFF"/>
<path d="M65.0502 143.31C64.1902 142.49 63.3301 141.63 62.4901 140.73C61.5901 134.91 58.2401 112.06 57.8501 94.87L46.9102 89.12V81L64.7301 88.33V88.53L49.2601 82.18V90.3L60.2001 96.05C60.6501 115.88 65.0502 143.31 65.0502 143.31Z" fill="#5D9CFF"/>
<path d="M102.51 53.66V93.07L98.7903 100.07V113.27C98.7903 113.27 89.7903 128.33 79.6803 139.12C80.9103 130.68 83.5503 111.18 83.8903 96.06L94.8302 90.31V82.18V80.04L74.6503 88.33L77.0303 103.57L70.3903 111.83L64.7102 104.74L67.0902 89.51L64.7002 88.51V88.31L46.8802 80.98V89.1L57.8203 94.85C58.2103 112.04 61.5602 134.85 62.4602 140.71C52.1502 129.91 42.9103 114.42 42.9103 114.42V101.22L39.2002 94.22V54.66L72.0103 40.66L102.51 53.66Z" fill="#ABD5FF"/>
<path d="M81.5295 24.19C81.2155 29.8191 80.0767 35.3717 78.1495 40.67L72.0396 38.67L65.9495 40.67C64.0218 35.3714 62.8799 29.8193 62.5596 24.19H81.5295Z" fill="#ABD5FF"/>
<path d="M80.0498 41.35L99.1198 49.44C99.1198 49.44 96.7198 37.64 82.0298 33.1C82.0298 33.1 82.1098 35.99 80.0498 41.35Z" fill="#D2E6FF"/>
<path d="M64.0398 41.35L44.9697 49.44C44.9697 49.44 47.3698 37.64 62.0598 33.1C62.0598 33.1 61.9798 35.99 64.0398 41.35Z" fill="#D2E6FF"/>
<path d="M64.0403 49.48C60.8303 51.33 57.5402 53.01 54.2202 54.62C50.9002 56.23 47.5502 57.76 44.2202 59.26L44.8203 58.34C44.8203 60.55 44.7602 62.76 44.6002 64.97C44.5402 66.07 44.4303 67.17 44.3103 68.28C44.1903 69.39 44.0403 70.48 43.8203 71.59C43.5903 70.48 43.4603 69.38 43.3203 68.28C43.1803 67.18 43.1003 66.07 43.0303 64.97C42.8803 62.76 42.8303 60.55 42.8203 58.34V57.69L43.4203 57.43C46.8003 55.97 50.2003 54.54 53.6403 53.21C57.0803 51.88 60.5003 50.58 64.0403 49.48Z" fill="#DBEDFF"/>
<path d="M68.2597 104.03C68.0044 103.145 67.8665 102.231 67.8497 101.31C67.8359 100.43 67.8928 99.5507 68.0197 98.68C68.1381 97.8081 68.3321 96.9482 68.5997 96.11C68.8723 95.2315 69.2625 94.3939 69.7597 93.62C70.0175 94.5005 70.1521 95.4125 70.1597 96.33C70.1768 97.2129 70.1233 98.0957 69.9997 98.97C69.8709 99.8409 69.6737 100.7 69.4097 101.54C69.1326 102.415 68.7462 103.252 68.2597 104.03V104.03Z" fill="#DBEDFF"/>
<path d="M53.4496 138.6L51.8996 139.84L52.4096 141.76C52.4198 141.816 52.4198 141.874 52.4096 141.93V141.93L48.1196 139.45L47.1196 138.59C47.0639 138.546 47.0234 138.486 47.0036 138.418C46.9839 138.35 46.986 138.277 47.0096 138.21C47.0306 138.144 47.0719 138.086 47.1275 138.045C47.1832 138.004 47.2504 137.981 47.3197 137.98L49.3197 137.88L50.0396 136.04C50.0632 135.98 50.1026 135.928 50.1538 135.889C50.2049 135.851 50.2657 135.827 50.3296 135.82C50.404 135.813 50.4786 135.831 50.5418 135.871C50.6051 135.91 50.6536 135.97 50.6797 136.04L51.3796 137.89L53.3796 138C53.4486 138.007 53.5143 138.033 53.5691 138.076C53.6239 138.118 53.6657 138.175 53.6897 138.24C53.6944 138.276 53.6944 138.313 53.6897 138.35C53.6768 138.41 53.6475 138.465 53.6051 138.509C53.5627 138.553 53.5088 138.585 53.4496 138.6V138.6Z" fill="#DFEEFF"/>
<path d="M16.1002 106.82L14.5603 108.06L15.0603 109.97C15.0795 110.038 15.0772 110.109 15.054 110.176C15.0307 110.242 14.9875 110.299 14.9303 110.34C14.8717 110.376 14.8041 110.396 14.7352 110.396C14.6663 110.396 14.5988 110.376 14.5403 110.34L12.8903 109.25L11.2302 110.32C11.1709 110.359 11.1014 110.38 11.0303 110.38C11.0303 110.04 11.0303 109.707 11.0303 109.38V108.88L11.2603 108.04L11.0303 107.85V106.13H11.9003L12.6202 104.28C12.6443 104.222 12.6841 104.171 12.7354 104.134C12.7866 104.097 12.8472 104.075 12.9103 104.07C12.985 104.061 13.0604 104.078 13.124 104.118C13.1877 104.158 13.2357 104.219 13.2603 104.29L13.9602 106.14L15.9602 106.25C16.047 106.257 16.1284 106.296 16.1891 106.358C16.2498 106.421 16.2857 106.503 16.2903 106.59C16.2775 106.64 16.2538 106.686 16.2209 106.726C16.1881 106.766 16.1469 106.798 16.1002 106.82V106.82Z" fill="#DFEEFF"/>
<path d="M15.0601 53.26L13.51 54.5L14.02 56.41C14.0367 56.4786 14.0323 56.5507 14.0073 56.6167C13.9823 56.6827 13.9379 56.7397 13.88 56.78C13.8244 56.8192 13.7581 56.8402 13.6901 56.8402C13.622 56.8402 13.5556 56.8192 13.5 56.78L11.84 55.69L11 56.23V54.88C10.9988 53.3911 11.2248 51.9108 11.67 50.49C11.7147 50.4518 11.7712 50.4306 11.83 50.43C11.9046 50.4213 11.9801 50.4384 12.0437 50.4784C12.1074 50.5184 12.1555 50.579 12.1801 50.65L12.88 52.5L14.88 52.61C14.9501 52.6131 15.0176 52.6379 15.0731 52.6809C15.1286 52.7238 15.1695 52.7829 15.1901 52.85C15.1947 52.8832 15.1947 52.9169 15.1901 52.95C15.1944 53.0083 15.1848 53.0667 15.1622 53.1206C15.1396 53.1745 15.1047 53.2223 15.0601 53.26V53.26Z" fill="#DFEEFF"/>
<path d="M45.7596 27.88L44.2196 29.12L44.7196 31.04C44.7396 31.106 44.7378 31.1767 44.7144 31.2416C44.6909 31.3064 44.6472 31.362 44.5896 31.4C44.533 31.4415 44.4648 31.4638 44.3947 31.4638C44.3245 31.4638 44.2562 31.4415 44.1996 31.4L42.5497 30.32L40.8796 31.39C40.8211 31.4263 40.7536 31.4455 40.6847 31.4455C40.6158 31.4455 40.5482 31.4263 40.4896 31.39C40.4353 31.3471 40.3949 31.2891 40.3735 31.2232C40.3522 31.1573 40.3508 31.0866 40.3696 31.02L40.8897 29.11L40.8197 29.05L44.0597 27.19L45.5497 27.27C45.6187 27.277 45.6842 27.3031 45.739 27.3456C45.7938 27.388 45.8356 27.445 45.8596 27.51C45.8646 27.5432 45.8646 27.5768 45.8596 27.61C45.8637 27.6596 45.8569 27.7094 45.8396 27.7561C45.8223 27.8027 45.7951 27.845 45.7596 27.88Z" fill="#DFEEFF"/>
<path d="M107.5 31.18L108.01 33.09C108.025 33.1577 108.021 33.2282 107.998 33.2936C107.975 33.3591 107.934 33.4167 107.88 33.46C107.821 33.4963 107.754 33.5156 107.685 33.5156C107.616 33.5156 107.548 33.4963 107.49 33.46L105.83 32.37L104.17 33.44C104.112 33.4787 104.044 33.4993 103.975 33.4993C103.905 33.4993 103.837 33.4787 103.78 33.44C103.721 33.4003 103.677 33.343 103.654 33.2764C103.63 33.2098 103.629 33.1375 103.65 33.07L104.17 31.16L102.64 29.91C102.587 29.8659 102.549 29.8073 102.529 29.7415C102.51 29.6757 102.51 29.6056 102.53 29.54C102.552 29.4736 102.593 29.4153 102.648 29.3725C102.703 29.3297 102.77 29.3045 102.84 29.3L104.84 29.21L105.01 28.76L108.22 30.62L107.5 31.18Z" fill="#DFEEFF"/>
<path d="M135.26 66.51V71.02L134.26 71.67C134.203 71.7114 134.135 71.7338 134.065 71.7338C133.995 71.7338 133.926 71.7114 133.87 71.67C133.815 71.6267 133.775 71.5691 133.752 71.5037C133.729 71.4382 133.724 71.3676 133.74 71.3L134.27 69.39L132.73 68.14C132.677 68.0959 132.639 68.0373 132.619 67.9715C132.599 67.9058 132.6 67.8357 132.62 67.77C132.641 67.7036 132.683 67.6453 132.738 67.6025C132.793 67.5598 132.86 67.5345 132.93 67.53L134.93 67.44L135.26 66.51Z" fill="#DFEEFF"/>
<path opacity="0.5" d="M98.9902 138.3L97.4403 139.54L97.5203 139.84L95.8602 140.84L95.7703 140.78L94.1202 141.84L94.0203 141.9C93.9689 141.913 93.9154 141.914 93.8635 141.903C93.8117 141.893 93.7627 141.871 93.7202 141.84C93.6618 141.8 93.6177 141.743 93.5944 141.676C93.571 141.61 93.5694 141.537 93.5902 141.47L94.1102 139.56L92.5802 138.31C92.5276 138.266 92.4892 138.207 92.4696 138.142C92.45 138.076 92.4502 138.006 92.4702 137.94C92.492 137.874 92.5332 137.815 92.5885 137.773C92.6437 137.73 92.7105 137.705 92.7803 137.7L94.7803 137.61L95.4902 135.76C95.5162 135.695 95.5611 135.639 95.619 135.6C95.6769 135.561 95.7453 135.54 95.8153 135.54C95.8853 135.54 95.9535 135.561 96.0115 135.6C96.0694 135.639 96.1143 135.695 96.1402 135.76L96.8402 137.61L98.8402 137.72C98.9103 137.723 98.9778 137.748 99.0333 137.791C99.0888 137.834 99.1297 137.893 99.1503 137.96C99.1549 137.993 99.1549 138.027 99.1503 138.06C99.141 138.109 99.1221 138.155 99.0946 138.196C99.0671 138.237 99.0316 138.273 98.9902 138.3V138.3Z" fill="#DFEEFF"/>
<path fill-rule="evenodd" clip-rule="evenodd" d="M99.4897 51.21C99.4464 51.1734 99.3915 51.1533 99.3347 51.1533C99.278 51.1533 99.2231 51.1734 99.1798 51.21C98.2204 51.9819 97.0261 52.4026 95.7948 52.4026C94.5635 52.4026 93.3691 51.9819 92.4098 51.21C92.369 51.1807 92.32 51.1649 92.2698 51.1649C92.2195 51.1649 92.1706 51.1807 92.1298 51.21H92.0698C92.0365 51.251 92.0183 51.3022 92.0183 51.355C92.0183 51.4078 92.0365 51.459 92.0698 51.5C92.8365 52.4617 93.254 53.6551 93.254 54.885C93.254 56.1149 92.8365 57.3084 92.0698 58.27C92.0319 58.3107 92.0107 58.3643 92.0107 58.42C92.0107 58.4757 92.0319 58.5293 92.0698 58.57V58.57C92.1122 58.6087 92.1674 58.6301 92.2247 58.6301C92.2821 58.6301 92.3374 58.6087 92.3798 58.57C93.3399 57.7999 94.5339 57.3802 95.7648 57.3802C96.9956 57.3802 98.1896 57.7999 99.1498 58.57V58.57C99.1899 58.6008 99.2392 58.6175 99.2898 58.6175C99.3404 58.6175 99.3896 58.6008 99.4298 58.57V58.57C99.4591 58.5292 99.4749 58.4802 99.4749 58.43C99.4749 58.3798 99.4591 58.3308 99.4298 58.29C98.6605 57.3314 98.2411 56.1391 98.2411 54.91C98.2411 53.6809 98.6605 52.4886 99.4298 51.53C99.4631 51.4852 99.4811 51.4308 99.4811 51.375C99.4811 51.3192 99.4631 51.2649 99.4298 51.22V51.22L99.4897 51.21Z" fill="#DBEDFF"/>
</g>
<defs>
<clipPath id="clip0_1152_5550">
<rect width="146.3" height="164.29" fill="white"/>
</clipPath>
</defs>
</svg>
